<svg xmlns="http://www.w3.org/2000/svg" viewBox="0 0 1200 700" role="img" aria-labelledby="title desc">
  <title id="title">Estimating Riemannian Quantities illustration</title>
  <desc id="desc">A noisy point cloud around a curved manifold with tangent and normal projections, highlighting geometric quantities.</desc>
  <defs>
    <linearGradient id="bg" x1="0" y1="0" x2="1" y2="1">
      <stop offset="0%" stop-color="#ffffff"/>
      <stop offset="100%" stop-color="#f3f4f6"/>
    </linearGradient>
    <filter id="soft" x="-20%" y="-20%" width="140%" height="140%">
      <feGaussianBlur stdDeviation="0.7"/>
    </filter>
  </defs>
  <rect width="1200" height="700" fill="url(#bg)"/>

  <g opacity="0.55" filter="url(#soft)">
    <circle cx="95" cy="260" r="14" fill="#d1d5db"/>
    <circle cx="150" cy="170" r="10" fill="#d1d5db"/>
    <circle cx="210" cy="305" r="15" fill="#d1d5db"/>
    <circle cx="270" cy="250" r="12" fill="#d1d5db"/>
    <circle cx="315" cy="355" r="13" fill="#d1d5db"/>
    <circle cx="370" cy="205" r="11" fill="#d1d5db"/>
    <circle cx="410" cy="280" r="15" fill="#d1d5db"/>
    <circle cx="475" cy="175" r="12" fill="#d1d5db"/>
    <circle cx="525" cy="310" r="14" fill="#d1d5db"/>
    <circle cx="595" cy="240" r="12" fill="#d1d5db"/>
    <circle cx="650" cy="160" r="10" fill="#d1d5db"/>
    <circle cx="705" cy="270" r="14" fill="#d1d5db"/>
    <circle cx="760" cy="345" r="13" fill="#d1d5db"/>
    <circle cx="820" cy="220" r="11" fill="#d1d5db"/>
    <circle cx="875" cy="290" r="15" fill="#d1d5db"/>
    <circle cx="940" cy="175" r="12" fill="#d1d5db"/>
    <circle cx="995" cy="320" r="14" fill="#d1d5db"/>
    <circle cx="1085" cy="250" r="12" fill="#d1d5db"/>
    <circle cx="1140" cy="165" r="10" fill="#d1d5db"/>

    <circle cx="135" cy="385" r="14" fill="#d1d5db"/>
    <circle cx="225" cy="430" r="13" fill="#d1d5db"/>
    <circle cx="300" cy="470" r="15" fill="#d1d5db"/>
    <circle cx="390" cy="385" r="14" fill="#d1d5db"/>
    <circle cx="480" cy="450" r="13" fill="#d1d5db"/>
    <circle cx="565" cy="400" r="14" fill="#d1d5db"/>
    <circle cx="645" cy="470" r="15" fill="#d1d5db"/>
    <circle cx="730" cy="390" r="12" fill="#d1d5db"/>
    <circle cx="830" cy="440" r="15" fill="#d1d5db"/>
    <circle cx="905" cy="385" r="13" fill="#d1d5db"/>
    <circle cx="985" cy="450" r="14" fill="#d1d5db"/>
    <circle cx="1070" cy="405" r="12" fill="#d1d5db"/>
  </g>

  <path d="M120 540 C 260 380, 430 330, 600 355 C 760 378, 900 330, 1080 470"
        fill="none" stroke="#111827" stroke-width="10" stroke-linecap="round"/>

  <path d="M335 335 L 600 350" stroke="#f97316" stroke-width="8" stroke-linecap="round"/>
  <path d="M600 350 L 600 495" stroke="#f97316" stroke-width="8" stroke-linecap="round"/>
  <path d="M600 350 L 770 350" stroke="#111827" stroke-width="8" stroke-linecap="round"/>
  <path d="M600 350 L 600 190" stroke="#3b82f6" stroke-width="8" stroke-dasharray="22 14" stroke-linecap="round"/>

  <path d="M315 170 C 470 110, 695 110, 885 130" fill="none" stroke="#3b82f6" stroke-width="8" stroke-dasharray="24 16" stroke-linecap="round"/>

  <path d="M600 350 C 620 324, 640 315, 665 317" fill="none" stroke="#3b82f6" stroke-width="6" stroke-linecap="round"/>

  <circle cx="600" cy="350" r="23" fill="#f97316"/>
  <circle cx="600" cy="190" r="24" fill="#4f6fbf"/>

  <path d="M650 350 L 730 350" stroke="#111827" stroke-width="7" stroke-linecap="round"/>
  <polygon points="730,350 702,337 702,363" fill="#111827"/>
  <path d="M600 350 L 600 440" stroke="#f97316" stroke-width="7" stroke-linecap="round"/>
  <polygon points="600,440 587,412 613,412" fill="#f97316"/>
  <path d="M600 350 L 600 255" stroke="#4f6fbf" stroke-width="7" stroke-dasharray="14 10" stroke-linecap="round"/>
  <polygon points="600,255 587,283 613,283" fill="#4f6fbf"/>

  <text x="892" y="548" fill="#111111" font-family="Georgia, 'Times New Roman', serif" font-size="70" font-style="italic">M</text>
  <text x="610" y="170" fill="#4f6fbf" font-family="Georgia, 'Times New Roman', serif" font-size="56" font-style="italic">y</text>
  <text x="980" y="138" fill="#4f6fbf" font-family="Georgia, 'Times New Roman', serif" font-size="60" font-style="italic">T</text>
  <text x="1010" y="138" fill="#4f6fbf" font-family="Georgia, 'Times New Roman', serif" font-size="60" font-style="italic">~</text>
  <text x="1030" y="138" fill="#4f6fbf" font-family="Georgia, 'Times New Roman', serif" font-size="58" font-style="italic">T</text>
  <text x="1060" y="138" fill="#4f6fbf" font-family="Georgia, 'Times New Roman', serif" font-size="36" font-style="italic">y</text>
  <text x="1085" y="138" fill="#4f6fbf" font-family="Georgia, 'Times New Roman', serif" font-size="58" font-style="italic">M</text>

  <text x="720" y="315" fill="#111111" font-family="Georgia, 'Times New Roman', serif" font-size="60" font-style="italic">u</text>
  <text x="758" y="329" fill="#f97316" font-family="Georgia, 'Times New Roman', serif" font-size="50" font-style="italic">T</text>
  <text x="792" y="329" fill="#f97316" font-family="Georgia, 'Times New Roman', serif" font-size="34" font-style="italic">π(y)</text>
  <text x="865" y="329" fill="#f97316" font-family="Georgia, 'Times New Roman', serif" font-size="54" font-style="italic">M</text>

  <text x="515" y="390" fill="#f97316" font-family="Georgia, 'Times New Roman', serif" font-size="56" font-style="italic">π(y)</text>
  <text x="315" y="560" fill="#f97316" font-family="Georgia, 'Times New Roman', serif" font-size="54" font-style="italic">Π</text>
  <text x="360" y="560" fill="#f97316" font-family="Georgia, 'Times New Roman', serif" font-size="54" font-style="italic">π(y)(u,u)</text>

  <text x="300" y="300" fill="#3b82f6" font-family="Georgia, 'Times New Roman', serif" font-size="54" font-style="italic">Π</text>
  <text x="342" y="300" fill="#3b82f6" font-family="Georgia, 'Times New Roman', serif" font-size="54" font-style="italic">y(u,u)</text>

  <text x="645" y="210" fill="#3b82f6" font-family="Georgia, 'Times New Roman', serif" font-size="54" font-style="italic">y</text>

  <circle cx="600" cy="350" r="2" fill="#111827"/>
</svg>
