<?xml version="1.0" encoding="UTF-8" standalone="no"?>
<!-- Created with Inkscape (http://www.inkscape.org/) -->

<svg
   version="1.1"
   id="svg1"
   width="604.71997"
   height="340.16"
   viewBox="0 0 604.71997 340.16"
   sodipodi:docname="PNSM_Illustrations.svg"
   inkscape:export-filename="PNSM_Illustrations.png"
   inkscape:export-xdpi="96"
   inkscape:export-ydpi="96"
   inkscape:version="1.4.3 (0d15f75, 2025-12-25)"
   xmlns:inkscape="http://www.inkscape.org/namespaces/inkscape"
   xmlns:sodipodi="http://sodipodi.sourceforge.net/DTD/sodipodi-0.dtd"
   xmlns="http://www.w3.org/2000/svg"
   xmlns:svg="http://www.w3.org/2000/svg">
  <defs
     id="defs1" />
  <sodipodi:namedview
     id="namedview1"
     pagecolor="#ffffff"
     bordercolor="#000000"
     borderopacity="0.25"
     inkscape:showpageshadow="2"
     inkscape:pageopacity="0.0"
     inkscape:pagecheckerboard="0"
     inkscape:deskcolor="#d1d1d1"
     inkscape:zoom="0.18606471"
     inkscape:cx="510.57506"
     inkscape:cy="1031.8991"
     inkscape:window-width="1470"
     inkscape:window-height="843"
     inkscape:window-x="0"
     inkscape:window-y="33"
     inkscape:window-maximized="1"
     inkscape:current-layer="g1">
    <inkscape:page
       x="0"
       y="0"
       inkscape:label="4"
       id="page1"
       width="604.71997"
       height="340.16"
       margin="0"
       bleed="0" />
  </sodipodi:namedview>
  <g
     id="g1"
     inkscape:groupmode="layer"
     inkscape:label="4">
    <g
       id="g90"
       transform="matrix(4.9543284,0,0,4.9543284,-1190.8378,-675.8018)">
      <path
         id="path8"
         d="m 29.8883,-82.19284 c 28.9817,41.85222 64.91375,60.39955 115.81719,59.77661 50.90343,0.62294 86.83548,-17.92439 115.81718,-59.77661 -44.151,10.31749 -72.42254,9.40427 -115.81718,-3.73604 -43.39465,13.14031 -71.6662,14.05353 -115.81719,3.73604"
         style="fill:#ececec;fill-opacity:1;fill-rule:nonzero;stroke:none"
         transform="matrix(1.0994,0,0,-1.0994,47.650365,115.60346)" />
      <path
         id="path9"
         d="M 205.4821,-33.62434 C 127.0253,-37.36038 149.44153,-59.77661 89.66492,-74.72076"
         style="fill:none;stroke:#80bfbf;stroke-width:0.74721;stroke-linecap:butt;stroke-linejoin:miter;stroke-miterlimit:10;stroke-dasharray:none;stroke-opacity:1"
         transform="matrix(1.0994,0,0,-1.0994,47.650365,115.60346)" />
      <g
         id="g9"
         aria-label="M&#10;D−2"
         transform="matrix(1.0994,0,0,1.0994,246.03819,167.58089)">
        <path
           id="path10"
           d="m 4.2076296,-6.0960382 c 0.284246,1.4212297 0.7674641,3.7520466 1.3928052,5.016941 0.2416091,0.46900586 0.3553075,0.71061492 0.4690058,0.71061492 0.042637,0 0.071061,0 0.2558214,-0.19897216 C 7.1637876,-1.3633431 7.7322795,-2.0028965 8.4997435,-2.8698467 L 10.88741,-5.655457 c -0.156336,0.9237994 -0.55428,3.3825268 -0.55428,4.66163363 0,0.29845825 0.01421,0.5827042 0.04264,0.88116245 0.01421,0.11369838 0.05685,0.42636893 0.511643,0.42636893 0.469005,0 1.293319,-0.48321812 1.293319,-0.69640259 0,-0.0568492 -0.07106,-0.0710615 -0.09949,-0.0710615 -0.142123,0 -0.355308,0.0994861 -0.483219,0.17054757 -0.255821,-0.0284246 -0.284246,-0.21318447 -0.298458,-0.45479353 -0.02842,-0.35530746 -0.02842,-0.68219026 -0.02842,-0.72482716 0,-1.2080453 0.469005,-4.5195106 0.795888,-5.8696789 0,-0.071061 0.01421,-0.099486 0.01421,-0.1847599 0,-0.042637 -0.01421,-0.1705476 -0.08527,-0.1705476 -0.04264,0 -0.05685,0.014212 -0.255822,0.2558214 C 10.70265,-6.181312 7.519095,-2.3724162 6.4389604,-1.4486169 6.1689267,-2.0313211 5.9699546,-2.4434777 5.5862225,-3.9784059 5.273552,-5.2006635 5.0887921,-6.1102505 4.9040322,-7.1761728 c -0.028425,-0.142123 -0.085274,-0.4405813 -0.085274,-0.4690059 -0.042637,-0.042637 -0.085274,-0.042637 -0.1279106,-0.042637 -0.1989722,0 -0.6537657,0.2273968 -0.6821903,0.4690059 -0.1279107,0.909587 -0.3553075,2.3450291 -1.1085592,4.4342368 -0.8811625,2.33081684 -1.1227715,2.33081684 -1.3217437,2.33081684 -0.142123,0 -0.5542796,-0.0852738 -0.79588868,-0.31267055 -0.0568492,-0.0568492 -0.0710615,-0.0568492 -0.0994861,-0.0568492 -0.14212298,0 -0.38373204,0.49743041 -0.38373204,0.79588866 0,0.09948609 0,0.24160906 0.34109514,0.42636893 0.28424596,0.14212298 0.54006738,0.14212298 0.59691648,0.14212298 0.667978,0 1.3217437,-1.54914046 1.5349282,-2.11763236 0.5116427,-1.2222576 1.1227715,-2.9561579 1.4354422,-4.5195105 z m 0,0"
           style="fill:#008080;fill-opacity:1;fill-rule:nonzero;stroke:none" />
        <path
           id="path11"
           d="m 19.652844,-1.7079913 c 0,-1.1654084 -0.710615,-2.003934 -1.819174,-2.003934 h -2.60085 c -0.127911,0 -0.227397,0 -0.227397,0.142123 0,0.1136984 0.09949,0.1136984 0.227397,0.1136984 0.213184,0 0.440581,0 0.440581,0.1279106 0,0.042637 0,0.056849 -0.02843,0.1705476 l -1.065922,4.2779016 c -0.07106,0.2700337 -0.127911,0.3410951 -0.611129,0.3410951 -0.170548,0 -0.255821,0 -0.255821,0.1563353 0,0.1136984 0.08527,0.1136984 0.213184,0.1136984 h 2.544001 c 1.577565,0 3.183555,-1.64862653 3.183555,-3.439376 z M 18.999078,-1.978025 c 0,0.4547935 -0.213184,1.63441424 -0.710614,2.37345372 C 17.847882,1.0349821 17.137267,1.461351 16.341379,1.461351 h -0.966437 c -0.07106,0 -0.156335,0 -0.227396,-0.014212 0.01421,-0.085274 0.01421,-0.099486 0.02842,-0.2131844 l 1.10856,-4.4058123 c 0.07106,-0.2842459 0.12791,-0.2842459 0.369519,-0.2842459 h 0.9238 c 0.767464,0 1.421229,0.4547935 1.421229,1.4780789 z m 0,0"
           style="fill:#008080;fill-opacity:1;fill-rule:nonzero;stroke:none" />
        <path
           id="path12"
           d="m 25.440802,-0.0735771 c 0.127911,0 0.298459,0 0.298459,-0.18475987 0,-0.18475987 -0.170548,-0.18475987 -0.298459,-0.18475987 h -4.562147 c -0.127911,0 -0.312671,0 -0.312671,0.18475987 0,0.18475987 0.18476,0.18475987 0.312671,0.18475987 z m 0,0"
           style="fill:#008080;fill-opacity:1;fill-rule:nonzero;stroke:none" />
        <path
           id="path13"
           d="m 30.265877,0.31015493 h -0.255821 c -0.01421,0.15633528 -0.08527,0.55427961 -0.18476,0.71061487 -0.04264,0.056849 -0.653766,0.056849 -0.781676,0.056849 h -1.42123 l 1.080135,-0.96643623 c 0.12791,-0.12791068 0.469005,-0.38373204 0.596916,-0.49743042 0.483218,-0.45479352 0.966436,-0.89537475 0.966436,-1.62020195 0,-0.9522239 -0.810101,-1.5633527 -1.804961,-1.5633527 -0.952224,0 -1.577566,0.7248272 -1.577566,1.435442 0,0.3837321 0.312671,0.4405813 0.412157,0.4405813 0.170548,0 0.426369,-0.1136984 0.426369,-0.4121567 0,-0.4263689 -0.397944,-0.4263689 -0.49743,-0.4263689 0.227396,-0.5827042 0.767464,-0.7816764 1.151196,-0.7816764 0.739039,0 1.122771,0.6395534 1.122771,1.3075314 0,0.8243133 -0.582704,1.43544208 -1.520716,2.40187832 L 26.968624,1.4329264 c -0.08527,0.085274 -0.08527,0.099486 -0.08527,0.2984583 h 3.140918 z m 0,0"
           style="fill:#008080;fill-opacity:1;fill-rule:nonzero;stroke:none" />
      </g>
      <path
         id="path14"
         d="m 29.8883,-82.19284 c 28.9817,41.85222 64.91375,60.39955 115.81719,59.77661 50.90343,0.62294 86.83548,-17.92439 115.81718,-59.77661 -44.151,10.31749 -72.42254,9.40427 -115.81718,-3.73604 -43.39465,13.14031 -71.6662,14.05353 -115.81719,3.73604"
         style="fill:none;stroke:#808080;stroke-width:0.74721;stroke-linecap:butt;stroke-linejoin:miter;stroke-miterlimit:10;stroke-dasharray:none;stroke-opacity:1"
         transform="matrix(1.0994,0,0,-1.0994,47.650365,115.60346)" />
      <g
         id="g14"
         aria-label="M&#10;D−1"
         transform="matrix(1.0994,0,0,1.0994,100.33141,193.70154)">
        <path
           id="path15"
           d="m 4.2074013,-6.0956297 c 0.2842459,1.4212298 0.7674641,3.7520466 1.3928052,5.0169411 0.241609,0.4690058 0.3553074,0.71061486 0.4690058,0.71061486 0.042637,0 0.071061,0 0.2558213,-0.19897216 0.8385256,-0.7958887 1.4070175,-1.4354421 2.1744816,-2.3023922 l 2.3876658,-2.7856104 c -0.156335,0.9237994 -0.554279,3.3825269 -0.554279,4.66163367 0,0.29845825 0.01421,0.5827042 0.04264,0.88116245 0.01421,0.11369838 0.05685,0.42636893 0.511643,0.42636893 0.469006,0 1.293319,-0.48321812 1.293319,-0.69640258 0,-0.0568492 -0.07106,-0.0710615 -0.09949,-0.0710615 -0.142123,0 -0.355307,0.0994861 -0.483218,0.17054757 -0.255821,-0.0284246 -0.284246,-0.21318447 -0.298458,-0.45479353 -0.02843,-0.35530741 -0.02843,-0.68219031 -0.02843,-0.72482721 0,-1.2080453 0.469006,-4.5195106 0.795889,-5.8696789 0,-0.071061 0.01421,-0.099486 0.01421,-0.1847598 0,-0.042637 -0.01421,-0.1705476 -0.08527,-0.1705476 -0.04264,0 -0.05685,0.014212 -0.255821,0.2558213 -1.037498,1.2506822 -4.2210524,5.059578 -5.301187,5.9833773 C 6.1686984,-2.0309126 5.9697262,-2.4430692 5.5859942,-3.9779973 5.2733236,-5.2002549 5.0885637,-6.109842 4.9038039,-7.1757643 c -0.028425,-0.142123 -0.085274,-0.4405812 -0.085274,-0.4690058 -0.042637,-0.042637 -0.085274,-0.042637 -0.1279107,-0.042637 -0.1989722,0 -0.6537657,0.2273968 -0.6821903,0.4690058 -0.1279107,0.9095871 -0.3553074,2.3450291 -1.1085592,4.4342369 -0.8811624,2.33081678 -1.1227715,2.33081678 -1.3217437,2.33081678 -0.1421229,0 -0.5542796,-0.0852738 -0.79588863,-0.31267055 -0.0568492,-0.0568492 -0.0710615,-0.0568492 -0.0994861,-0.0568492 -0.14212298,0 -0.38373204,0.49743042 -0.38373204,0.79588867 0,0.09948608 0,0.24160906 0.34109514,0.42636892 C 0.92436033,0.5415132 1.1801817,0.5415132 1.2370309,0.5415132 c 0.667978,0 1.3217437,-1.5491404 1.5349281,-2.1176323 0.5116427,-1.2222576 1.1227715,-2.9561579 1.4354423,-4.5195106 z m 0,0"
           style="fill:#808080;fill-opacity:1;fill-rule:nonzero;stroke:none" />
        <path
           id="path16"
           d="m 19.652616,-1.7075828 c 0,-1.1654084 -0.710615,-2.003934 -1.819174,-2.003934 h -2.600851 c -0.127911,0 -0.227397,0 -0.227397,0.142123 0,0.1136984 0.09949,0.1136984 0.227397,0.1136984 0.213185,0 0.440581,0 0.440581,0.1279107 0,0.042637 0,0.056849 -0.02842,0.1705476 l -1.065923,4.2779015 c -0.07106,0.2700337 -0.12791,0.3410952 -0.611128,0.3410952 -0.170548,0 -0.255822,0 -0.255822,0.1563353 0,0.1136983 0.08527,0.1136983 0.213185,0.1136983 h 2.544001 c 1.577565,0 3.183555,-1.64862649 3.183555,-3.439376 z M 18.99885,-1.9776164 c 0,0.4547935 -0.213184,1.63441418 -0.710615,2.37345366 C 17.847654,1.0353907 17.137039,1.4617596 16.34115,1.4617596 h -0.966436 c -0.07106,0 -0.156335,0 -0.227397,-0.014212 0.01421,-0.085274 0.01421,-0.099486 0.02843,-0.2131845 l 1.108559,-4.4058122 c 0.07106,-0.284246 0.127911,-0.284246 0.36952,-0.284246 h 0.923799 c 0.767464,0 1.42123,0.4547935 1.42123,1.478079 z m 0,0"
           style="fill:#808080;fill-opacity:1;fill-rule:nonzero;stroke:none" />
        <path
           id="path17"
           d="m 25.440574,-0.07316856 c 0.127911,0 0.298458,0 0.298458,-0.18475987 0,-0.18475987 -0.170547,-0.18475987 -0.298458,-0.18475987 h -4.562148 c -0.12791,0 -0.31267,0 -0.31267,0.18475987 0,0.18475987 0.18476,0.18475987 0.31267,0.18475987 z m 0,0"
           style="fill:#808080;fill-opacity:1;fill-rule:nonzero;stroke:none" />
        <path
           id="path18"
           d="M 30.02404,1.7317932 V 1.4617596 h -0.284246 c -0.753252,0 -0.781676,-0.085274 -0.781676,-0.3837321 V -3.341997 c 0,-0.2273968 -0.01421,-0.2273968 -0.227397,-0.2273968 -0.326883,0.3126706 -0.753252,0.5116427 -1.506504,0.5116427 v 0.2558214 c 0.213185,0 0.639554,0 1.108559,-0.2131845 v 4.0931417 c 0,0.2984583 -0.02842,0.3837321 -0.781676,0.3837321 h -0.284246 v 0.2700336 c 0.326883,-0.028425 1.009073,-0.028425 1.378593,-0.028425 0.355307,0 1.05171,0 1.378593,0.028425 z m 0,0"
           style="fill:#808080;fill-opacity:1;fill-rule:nonzero;stroke:none" />
      </g>
      <path
         id="path19"
         d="M 123.28926,-14.94415 V -40.8529"
         style="fill:none;stroke:#0000ff;stroke-width:0.74721;stroke-linecap:butt;stroke-linejoin:miter;stroke-miterlimit:10;stroke-dasharray:none;stroke-opacity:1"
         transform="matrix(1.0994,0,0,-1.0994,47.650365,115.60346)" />
      <path
         id="path20"
         d="M 5.28725,0 1.20639,1.5426 2.55852,0 1.20639,-1.5426 Z"
         style="fill:#0000ff;fill-opacity:1;fill-rule:nonzero;stroke:#0000ff;stroke-width:0.74721;stroke-linecap:butt;stroke-linejoin:miter;stroke-miterlimit:10;stroke-dasharray:none;stroke-opacity:1"
         transform="matrix(0,1.0994,1.0994,0,183.19458,157.90968)" />
      <path
         id="path21"
         d="M 123.28926,-14.94415 141.7803,-18.0261"
         style="fill:none;stroke:#0000ff;stroke-width:0.74721;stroke-linecap:butt;stroke-linejoin:miter;stroke-miterlimit:10;stroke-dasharray:none;stroke-opacity:1"
         transform="matrix(1.0994,0,0,-1.0994,47.650365,115.60346)" />
      <path
         id="path22"
         d="M 5.28725,0 1.20639,1.5426 2.55852,0 1.20639,-1.5426 Z"
         style="fill:#0000ff;fill-opacity:1;fill-rule:nonzero;stroke:#0000ff;stroke-width:0.74721;stroke-linecap:butt;stroke-linejoin:miter;stroke-miterlimit:10;stroke-dasharray:none;stroke-opacity:1"
         transform="matrix(1.0843822,0.18070838,0.18070838,-1.0843822,200.95176,134.99275)" />
      <path
         id="path23"
         d="m 123.28926,-44.83246 22.41623,-3.73604 v 29.88831"
         style="fill:none;stroke:#0000ff;stroke-width:0.74721;stroke-linecap:butt;stroke-linejoin:miter;stroke-miterlimit:10;stroke-dasharray:0.74721, 0.99628;stroke-dashoffset:0;stroke-opacity:1"
         transform="matrix(1.0994,0,0,-1.0994,47.650365,115.60346)" />
      <path
         id="path24"
         d="m 123.28926,-14.94415 v -29.88831 l 22.41623,-3.73604 v 29.88831 z"
         style="fill:#0000ff;fill-opacity:0.1;fill-rule:nonzero;stroke:none"
         transform="matrix(1.0994,0,0,-1.0994,47.650365,115.60346)" />
      <g
         id="g24"
         aria-label="f&#10;1&#10;(z)"
         transform="matrix(1.0994,0,0,1.0994,154.68355,158.0326)">
        <path
           id="path25"
           d="m 4.9317057,-6.9794676 c 0,-0.4690058 -0.4405812,-0.7106149 -0.8953747,-0.7106149 -1.0659223,0 -1.335956,1.4070175 -1.4212298,1.7907495 L 2.3877045,-4.7055 H 1.6770896 c -0.1847599,0 -0.2984583,0 -0.2984583,0.2131845 0,0.1279107 0.099486,0.1279107 0.2700337,0.1279107 H 2.3308553 L 1.5349666,-0.29968771 C 1.3928436,0.38250258 1.2933575,0.8230838 1.2222961,1.0504806 1.1370223,1.4342126 0.99489929,2.0027045 0.59695496,2.0027045 c -0.0994861,0 -0.31267055,-0.042637 -0.42636893,-0.1989722 0.32688285,-0.056849 0.46900582,-0.3268828 0.46900582,-0.5400673 0,-0.241609 -0.19897216,-0.34109511 -0.36951973,-0.34109511 -0.270033659628,0 -0.54006731,0.21318451 -0.54006731,0.59691651 0,0.4832181 0.46900582,0.7106149 0.86695015,0.7106149 1.13698384,0 1.59177734,-2.28817995 1.66283884,-2.67191198 L 3.0272579,-4.3644048 h 0.8953747 c 0.1847599,0 0.284246,0 0.284246,-0.1989722 0,-0.142123 -0.085274,-0.142123 -0.2700337,-0.142123 H 3.084107 l 0.3553075,-1.7623249 c 0.085274,-0.4121566 0.2131844,-0.9948608 0.5969165,-0.9948608 0.085274,0 0.3126705,0.028425 0.4547935,0.1989722 -0.3268828,0.056849 -0.4690058,0.3268828 -0.4690058,0.5400673 0,0.241609 0.1847599,0.3410951 0.3695197,0.3410951 0.2700337,0 0.5400673,-0.2131845 0.5400673,-0.5969165 z m 0,0"
           style="fill:#0000ff;fill-opacity:1;fill-rule:nonzero;stroke:none" />
        <path
           id="path26"
           d="M 6.9107682,1.6367378 V 1.3667042 h -0.284246 c -0.7532517,0 -0.7816763,-0.085274 -0.7816763,-0.38373205 V -3.4370524 c 0,-0.2273968 -0.014212,-0.2273968 -0.2273968,-0.2273968 -0.3268829,0.3126706 -0.7532518,0.5116427 -1.5065036,0.5116427 v 0.2558214 c 0.2131845,0 0.6395534,0 1.1085593,-0.2131845 v 4.09314175 c 0,0.29845825 -0.028425,0.38373205 -0.7816764,0.38373205 h -0.284246 v 0.2700336 c 0.3268829,-0.028425 1.0090732,-0.028425 1.3785929,-0.028425 0.3553074,0 1.05171,0 1.3785929,0.028425 z m 0,0"
           style="fill:#0000ff;fill-opacity:1;fill-rule:nonzero;stroke:none" />
        <path
           id="path27"
           d="m 11.6861,2.6138333 c 0,-0.028425 0,-0.056849 -0.18476,-0.2416091 -1.36438,-1.3643805 -1.7054754,-3.4251637 -1.7054754,-5.1022148 0,-1.9044479 0.4121564,-3.7946835 1.7481124,-5.159064 0.142123,-0.1279107 0.142123,-0.1563353 0.142123,-0.1847599 0,-0.085274 -0.04264,-0.1136984 -0.09949,-0.1136984 -0.113698,0 -1.094347,0.7390395 -1.7481125,2.1318447 -0.5542796,1.193833 -0.6821903,2.4018783 -0.6821903,3.3256776 0,0.8527379 0.1136984,2.17448153 0.7248272,3.41095143 C 10.5349,2.0169168 11.472912,2.7275317 11.58661,2.7275317 c 0.05685,0 0.09949,-0.028425 0.09949,-0.1136984 z m 0,0"
           style="fill:#0000ff;fill-opacity:1;fill-rule:nonzero;stroke:none" />
        <path
           id="path28"
           d="m 17.051243,-1.5645822 c 0,-0.1136984 -0.142123,-0.1136984 -0.170548,-0.1136984 -0.127911,0 -0.142123,0.042637 -0.18476,0.1847599 -0.198972,0.5400673 -0.724827,0.90958704 -1.193833,0.90958704 -0.213184,0 -0.383732,-0.0710615 -0.611129,-0.17054757 -0.326883,-0.14212298 -0.454793,-0.18475987 -0.667978,-0.18475987 -0.05685,0 -0.142123,0 -0.198972,0.0142123 0.07106,-0.0852738 0.298458,-0.3695197 0.611129,-0.667978 l 1.577565,-1.5633527 c 0.639553,-0.6253411 1.165408,-1.4638667 1.165408,-1.5633528 0,-0.099486 -0.08527,-0.099486 -0.142123,-0.099486 -0.142123,0 -0.142123,0 -0.213184,0.142123 -0.355308,0.6111288 -0.49743,0.667978 -0.68219,0.667978 -0.18476,0 -0.298459,-0.1136984 -0.511643,-0.3979443 -0.127911,-0.1705476 -0.312671,-0.4121567 -0.667978,-0.4121567 -0.795889,0 -1.264895,1.0232855 -1.264895,1.2364699 0,0.099486 0.07106,0.1279107 0.156336,0.1279107 0.12791,0 0.142123,-0.028425 0.198972,-0.1563353 0.08527,-0.241609 0.397944,-0.5116427 0.810101,-0.5116427 0.213184,0 0.412156,0.085274 0.653766,0.1989722 0.355307,0.1563353 0.483218,0.1563353 0.639553,0.1563353 -0.156335,0.1847598 -0.255821,0.3126705 -0.440581,0.4832181 l -1.79075,1.7765372 c -0.611129,0.59691649 -1.122771,1.40701746 -1.122771,1.52071584 0,0.09948608 0.09949,0.09948608 0.156335,0.09948608 0.127911,0 0.127911,-0.0142123 0.170548,-0.08527378 0.156335,-0.24160906 0.454793,-0.72482718 0.86695,-0.72482718 0.241609,0 0.326883,0.11369838 0.525855,0.38373203 0.170547,0.22739677 0.341095,0.42636893 0.68219,0.42636893 1.05171,0 1.648627,-1.40701742 1.648627,-1.67705122 z m 0,0"
           style="fill:#0000ff;fill-opacity:1;fill-rule:nonzero;stroke:none" />
        <path
           id="path29"
           d="m 20.835267,-2.7299906 c 0,-0.8527379 -0.113699,-2.1744815 -0.724827,-3.4109514 -0.653766,-1.335956 -1.591778,-2.0465709 -1.705476,-2.0465709 -0.05685,0 -0.09949,0.042637 -0.09949,0.1136984 0,0.028425 0,0.056849 0.198972,0.2416091 1.080135,1.0801346 1.691263,2.8140349 1.691263,5.1022148 0,1.86181099 -0.397944,3.7804712 -1.748112,5.159064 -0.142123,0.1279107 -0.142123,0.1563353 -0.142123,0.1847599 0,0.071061 0.04264,0.1136984 0.09949,0.1136984 0.113698,0 1.094347,-0.7390395 1.748112,-2.13184466 0.55428,-1.193833 0.682191,-2.40187834 0.682191,-3.32567764 z m 0,0"
           style="fill:#0000ff;fill-opacity:1;fill-rule:nonzero;stroke:none" />
      </g>
      <g
         id="g29"
         aria-label="f&#10;2&#10;(z)"
         transform="matrix(1.0994,0,0,1.0994,199.86449,128.45984)">
        <path
           id="path30"
           d="m 4.9305643,-6.9772408 c 0,-0.4690058 -0.4405812,-0.7106149 -0.8953748,-0.7106149 -1.0659223,0 -1.3359559,1.4070175 -1.4212297,1.7907495 L 2.386563,-4.7032732 H 1.6759481 c -0.1847598,0 -0.2984582,0 -0.2984582,0.2131845 0,0.1279106 0.099486,0.1279106 0.2700336,0.1279106 H 2.3297138 L 1.5338252,-0.29746095 C 1.3917022,0.38472934 1.2922161,0.82531056 1.2211546,1.0527073 c -0.085274,0.3837321 -0.22739675,0.952224 -0.62534108,0.952224 -0.0994861,0 -0.31267055,-0.042637 -0.42636893,-0.1989722 0.32688285,-0.056849 0.46900582,-0.3268828 0.46900582,-0.5400673 0,-0.2416091 -0.19897216,-0.34109515 -0.36951974,-0.34109515 -0.27003365,0 -0.54006731,0.21318445 -0.54006731,0.59691645 0,0.4832182 0.46900583,0.7106149 0.86695016,0.7106149 1.13698378,0 1.59177738,-2.28817989 1.66283878,-2.67191192 L 3.0261164,-4.3621781 h 0.8953748 c 0.1847598,0 0.2842459,0 0.2842459,-0.1989721 0,-0.142123 -0.085274,-0.142123 -0.2700336,-0.142123 H 3.0829656 L 3.438273,-6.4655981 c 0.085274,-0.4121566 0.2131845,-0.9948608 0.5969165,-0.9948608 0.085274,0 0.3126706,0.028424 0.4547936,0.1989721 -0.3268829,0.056849 -0.4690059,0.3268829 -0.4690059,0.5400673 0,0.2416091 0.1847599,0.3410952 0.3695198,0.3410952 0.2700336,0 0.5400673,-0.2131845 0.5400673,-0.5969165 z m 0,0"
           style="fill:#0000ff;fill-opacity:1;fill-rule:nonzero;stroke:none" />
        <path
           id="path31"
           d="M 7.1547889,0.21418177 H 6.8989675 C 6.8847552,0.37051704 6.8136937,0.76846137 6.7142076,0.92479665 6.6715708,0.98164584 6.060442,0.98164584 5.9325313,0.98164584 H 4.5113015 L 5.5914361,0.0152096 C 5.7193468,-0.11270108 6.060442,-0.36852244 6.1883526,-0.48222082 6.6715708,-0.93701434 7.1547889,-1.3775956 7.1547889,-2.1024227 c 0,-0.952224 -0.810101,-1.5633528 -1.8049618,-1.5633528 -0.952224,0 -1.5775651,0.7248272 -1.5775651,1.4354421 0,0.383732 0.3126706,0.4405812 0.4121567,0.4405812 0.1705475,0 0.4263689,-0.1136984 0.4263689,-0.4121566 0,-0.426369 -0.3979443,-0.426369 -0.4974304,-0.426369 0.2273967,-0.5827042 0.7674641,-0.7816763 1.1511961,-0.7816763 0.7390395,0 1.1227715,0.6395534 1.1227715,1.3075314 0,0.8243132 -0.5827042,1.43544201 -1.5207158,2.40187825 L 3.8575358,1.3369533 C 3.772262,1.4222271 3.772262,1.4364394 3.772262,1.6354115 h 3.1409178 z m 0,0"
           style="fill:#0000ff;fill-opacity:1;fill-rule:nonzero;stroke:none" />
        <path
           id="path32"
           d="m 11.688512,2.6160601 c 0,-0.028425 0,-0.056849 -0.18476,-0.2416091 -1.364381,-1.3643806 -1.7054758,-3.4251637 -1.7054758,-5.1022148 0,-1.9044479 0.4121568,-3.7946835 1.7481128,-5.1590641 0.142123,-0.1279107 0.142123,-0.1563352 0.142123,-0.1847598 0,-0.085274 -0.04264,-0.1136984 -0.09949,-0.1136984 -0.113699,0 -1.094347,0.7390395 -1.7481129,2.1318446 -0.5542796,1.193833 -0.6821903,2.4018783 -0.6821903,3.3256777 0,0.8527378 0.1136984,2.17448149 0.7248272,3.41095139 0.653766,1.33595601 1.591777,2.04657081 1.705476,2.04657081 0.05685,0 0.09949,-0.028425 0.09949,-0.1136983 z m 0,0"
           style="fill:#0000ff;fill-opacity:1;fill-rule:nonzero;stroke:none" />
        <path
           id="path33"
           d="m 17.053654,-1.5623554 c 0,-0.1136984 -0.142123,-0.1136984 -0.170547,-0.1136984 -0.127911,0 -0.142123,0.042637 -0.18476,0.1847599 -0.198972,0.54006726 -0.724827,0.909587 -1.193833,0.909587 -0.213185,0 -0.383732,-0.0710615 -0.611129,-0.17054757 -0.326883,-0.14212298 -0.454794,-0.18475987 -0.667978,-0.18475987 -0.05685,0 -0.142123,0 -0.198972,0.0142123 0.07106,-0.0852738 0.298458,-0.36951976 0.611129,-0.66797796 l 1.577565,-1.5633528 c 0.639553,-0.6253411 1.165408,-1.4638666 1.165408,-1.5633527 0,-0.099486 -0.08527,-0.099486 -0.142123,-0.099486 -0.142123,0 -0.142123,0 -0.213184,0.142123 -0.355308,0.6111288 -0.497431,0.667978 -0.682191,0.667978 -0.18476,0 -0.298458,-0.1136984 -0.511642,-0.3979444 -0.127911,-0.1705475 -0.312671,-0.4121566 -0.667978,-0.4121566 -0.795889,0 -1.264895,1.0232854 -1.264895,1.2364699 0,0.099486 0.07106,0.1279107 0.156335,0.1279107 0.127911,0 0.142123,-0.028425 0.198973,-0.1563353 0.08527,-0.2416091 0.397944,-0.5116427 0.8101,-0.5116427 0.213185,0 0.412157,0.085274 0.653766,0.1989722 0.355308,0.1563352 0.483218,0.1563352 0.639554,0.1563352 -0.156336,0.1847599 -0.255822,0.3126706 -0.440582,0.4832182 l -1.790749,1.7765372 c -0.611129,0.59691645 -1.122772,1.40701742 -1.122772,1.5207158 0,0.09948608 0.09949,0.09948608 0.156336,0.09948608 0.12791,0 0.12791,-0.0142123 0.170547,-0.08527378 0.156335,-0.24160906 0.454794,-0.72482718 0.86695,-0.72482718 0.241609,0 0.326883,0.11369838 0.525855,0.38373203 0.170548,0.22739677 0.341095,0.42636893 0.682191,0.42636893 1.05171,0 1.648626,-1.40701748 1.648626,-1.67705118 z m 0,0"
           style="fill:#0000ff;fill-opacity:1;fill-rule:nonzero;stroke:none" />
        <path
           id="path34"
           d="m 20.837678,-2.7277638 c 0,-0.8527379 -0.113698,-2.1744816 -0.724827,-3.4109515 -0.653765,-1.3359559 -1.591777,-2.0465708 -1.705475,-2.0465708 -0.05685,0 -0.09949,0.042637 -0.09949,0.1136984 0,0.028425 0,0.056849 0.198973,0.241609 1.080134,1.0801346 1.691263,2.8140349 1.691263,5.1022149 0,1.86181095 -0.397944,3.7804711 -1.748113,5.159064 -0.142123,0.1279107 -0.142123,0.1563353 -0.142123,0.1847599 0,0.071062 0.04264,0.1136983 0.09949,0.1136983 0.113698,0 1.094346,-0.7390394 1.748112,-2.1318446 0.55428,-1.193833 0.68219,-2.4018783 0.68219,-3.3256776 z m 0,0"
           style="fill:#0000ff;fill-opacity:1;fill-rule:nonzero;stroke:none" />
      </g>
      <path
         id="path35"
         d="m 140.22597,-50.06291 c 0,-1.10047 -0.89209,-1.99256 -1.99256,-1.99256 -1.10048,0 -1.99255,0.89209 -1.99255,1.99256 0,1.10048 0.89207,1.99255 1.99255,1.99255 1.10047,0 1.99256,-0.89207 1.99256,-1.99255 z"
         style="fill:#ff0000;fill-opacity:1;fill-rule:nonzero;stroke:none"
         transform="matrix(1.0994,0,0,-1.0994,47.650365,115.60346)" />
      <g
         id="g35"
         aria-label="µ&#10;z"
         transform="matrix(1.0994,0,0,1.0994,198.55621,183.01207)">
        <path
           id="path36"
           d="m 2.5141938,-3.837639 c 0.056849,-0.2273968 0.1705475,-0.6395534 0.1705475,-0.6964026 0,-0.1847599 -0.1279106,-0.2842459 -0.3126705,-0.2842459 -0.042637,0 -0.3410951,0 -0.4405812,0.383732 L 0.35392453,1.8899169 c -0.0284246,0.1279107 -0.0284246,0.1563353 -0.0284246,0.1705476 0,0.1705476 0.11369838,0.2984583 0.31267055,0.2984583 0.22739676,0 0.35530744,-0.1989722 0.36951972,-0.2273968 0.042637,-0.099486 0.1847599,-0.667978 0.6111288,-2.34502911 0.3410952,0.28424595 0.8385256,0.32688285 1.05171,0.32688285 0.7674641,0 1.193833,-0.48321812 1.4496544,-0.79588867 0.099486,0.49743042 0.5116427,0.79588867 0.9806485,0.79588867 0.3837321,0 0.6395534,-0.24160906 0.810101,-0.5969165 0.1847599,-0.38373204 0.3268828,-1.05171004 0.3268828,-1.08013464 0,-0.1136984 -0.099486,-0.1136984 -0.1279106,-0.1136984 -0.1136984,0 -0.1136984,0.056849 -0.1563353,0.1989722 -0.1847599,0.71061489 -0.383732,1.36438058 -0.8243133,1.36438058 -0.2984582,0 -0.3268828,-0.28424596 -0.3268828,-0.51164272 0,-0.24160906 0.1279107,-0.75325176 0.2131845,-1.13698376 l 0.3126705,-1.1796208 c 0.028425,-0.1563352 0.142123,-0.5684919 0.1847599,-0.7390394 0.056849,-0.2416091 0.1563352,-0.667978 0.1563352,-0.7248272 0,-0.1989722 -0.1421229,-0.2984583 -0.3126705,-0.2984583 -0.056849,0 -0.3410951,0.014212 -0.4263689,0.3837321 l -0.5116427,2.0323585 c -0.1279107,0.5542796 -0.2558214,1.0090732 -0.284246,1.1227716 -0.014212,0.056849 -0.5400673,1.05170998 -1.4212298,1.05170998 -0.5400673,0 -0.8101009,-0.36951974 -0.8101009,-0.95222398 0,-0.3268828 0.085274,-0.6253411 0.1563352,-0.9380116 z m 0,0"
           style="fill:#ff0000;fill-opacity:1;fill-rule:nonzero;stroke:none" />
        <path
           id="path37"
           d="m 10.281214,0.48645255 c 0,-0.11369838 -0.09949,-0.11369838 -0.156335,-0.11369838 -0.113698,0 -0.1279105,0.0426369 -0.1563351,0.14212298 C 9.8264209,0.89860918 9.4284766,1.1686428 9.0589568,1.1686428 8.8884093,1.1686428 8.7462863,1.1117936 8.5188895,1.0265199 8.2488559,0.92703378 8.1635821,0.92703378 7.921973,0.92703378 l 0.6111288,-0.6111288 0.8953748,-0.79588867 c 0.4547935,-0.46900582 0.4690058,-0.48321812 0.5969164,-0.63955341 0.156335,-0.1847598 0.454794,-0.5684919 0.454794,-0.667978 0,-0.085274 -0.08527,-0.085274 -0.156336,-0.085274 -0.08527,0 -0.113698,0 -0.156335,0.071061 -0.241609,0.4121567 -0.3410951,0.4832182 -0.4974304,0.4832182 -0.1705475,0 -0.2842459,-0.1279107 -0.3979443,-0.2700337 -0.2131845,-0.2131845 -0.3553075,-0.284246 -0.5542796,-0.284246 -0.6111288,0 -0.9948609,0.7106149 -0.9948609,0.92379939 0,0.0994861 0.099486,0.0994861 0.142123,0.0994861 0.099486,0 0.1279107,-0.0142123 0.1563353,-0.0852738 0.1563353,-0.39794429 0.5827042,-0.39794429 0.6253411,-0.39794429 0.1705476,0 0.3553074,0.071061 0.4690058,0.1136983 0.2984583,0.1136984 0.3553075,0.1279107 0.5116427,0.1279107 -0.2131844,0.27003367 -0.667978,0.667978 -1.0374977,0.99486085 C 8.3341296,0.14535741 8.064096,0.37275417 7.8224869,0.62857553 7.396118,1.083369 7.0834475,1.5381626 7.0834475,1.6234364 c 0,0.099486 0.099486,0.099486 0.1563352,0.099486 0.099486,0 0.099486,-0.014212 0.1705476,-0.1136983 0.099486,-0.1563353 0.3268828,-0.4547936 0.6111288,-0.4547936 0.142123,0 0.2273968,0.042637 0.4263689,0.2700337 0.1563353,0.1847599 0.2984583,0.2984582 0.525855,0.2984582 0.8243133,0 1.307531,-1.00907309 1.307531,-1.23646985 z m 0,0"
           style="fill:#ff0000;fill-opacity:1;fill-rule:nonzero;stroke:none" />
      </g>
      <path
         id="path38"
         d="m 123.28926,-14.94415 13.386,-31.45703"
         style="fill:none;stroke:#ff0000;stroke-width:0.74721;stroke-linecap:butt;stroke-linejoin:miter;stroke-miterlimit:10;stroke-dasharray:none;stroke-opacity:1"
         transform="matrix(1.0994,0,0,-1.0994,47.650365,115.60346)" />
      <path
         id="path39"
         d="M 5.28725,0 1.20639,1.5426 2.55852,0 1.20639,-1.5426 Z"
         style="fill:#ff0000;fill-opacity:1;fill-rule:nonzero;stroke:#ff0000;stroke-width:0.74721;stroke-linecap:butt;stroke-linejoin:miter;stroke-miterlimit:10;stroke-dasharray:none;stroke-opacity:1"
         transform="matrix(0.43045908,1.0116019,1.0116019,-0.43045908,196.89022,164.21771)" />
      <path
         id="path40"
         d="m 125.28181,-14.94415 c 0,-1.10047 -0.89209,-1.99255 -1.99255,-1.99255 -1.10048,0 -1.99256,0.89208 -1.99256,1.99255 0,1.10048 0.89208,1.99255 1.99256,1.99255 1.10046,0 1.99255,-0.89207 1.99255,-1.99255 z"
         style="fill:#000000;fill-opacity:1;fill-rule:nonzero;stroke:none"
         transform="matrix(1.0994,0,0,-1.0994,47.650365,115.60346)" />
      <path
         id="path41"
         d="m 4.7341664,-1.5643888 c 0,-0.1136984 -0.1421229,-0.1136984 -0.1705475,-0.1136984 -0.1279107,0 -0.142123,0.042637 -0.1847599,0.1847599 -0.1989722,0.54006732 -0.7248272,0.90958706 -1.193833,0.90958706 -0.2131845,0 -0.383732,-0.0710615 -0.6111288,-0.17054757 -0.3268828,-0.14212297 -0.4547935,-0.18475987 -0.667978,-0.18475987 -0.056849,0 -0.142123,0 -0.1989722,0.0142123 0.071062,-0.0852738 0.2984583,-0.36951972 0.6111288,-0.66797802 l 1.5775651,-1.5633527 c 0.6395534,-0.6253411 1.1654084,-1.4638667 1.1654084,-1.5633527 0,-0.099486 -0.085274,-0.099486 -0.142123,-0.099486 -0.142123,0 -0.142123,0 -0.2131845,0.1421229 -0.3553074,0.6111288 -0.4974304,0.667978 -0.6821902,0.667978 -0.1847599,0 -0.2984583,-0.1136983 -0.5116428,-0.3979443 -0.1279106,-0.1705476 -0.3126705,-0.4121566 -0.6679779,-0.4121566 -0.7958887,0 -1.2648945,1.0232854 -1.2648945,1.2364699 0,0.099486 0.071062,0.1279106 0.1563352,0.1279106 0.1279107,0 0.142123,-0.028425 0.1989722,-0.1563352 0.085274,-0.2416091 0.3979443,-0.5116427 0.810101,-0.5116427 0.2131844,0 0.4121566,0.085274 0.6537657,0.1989721 0.3553074,0.1563353 0.4832181,0.1563353 0.6395534,0.1563353 -0.1563353,0.1847599 -0.2558214,0.3126705 -0.4405813,0.4832181 l -1.7907495,1.7765372 c -0.6111288,0.59691652 -1.12277148,1.40701748 -1.12277148,1.52071586 0,0.09948609 0.0994861,0.09948609 0.15633527,0.09948609 0.12791068,0 0.12791068,-0.0142123 0.17054761,-0.08527379 0.1563352,-0.24160906 0.4547935,-0.72482718 0.8669501,-0.72482718 0.2416091,0 0.3268829,0.11369838 0.525855,0.38373204 0.1705476,0.22739676 0.3410952,0.42636893 0.6821903,0.42636893 1.05171,0 1.6486265,-1.40701745 1.6486265,-1.67705125 z m 0,0"
         style="fill:#000000;fill-opacity:1;fill-rule:nonzero;stroke:none"
         aria-label="z"
         transform="matrix(1.0994,0,0,1.0994,172.89291,128.86442)" />
      <path
         id="path42"
         d="m 224.1623,-33.62434 c 13.39281,11.23811 31.43961,11.23811 41.78403,2.55795"
         style="fill:none;stroke:#000000;stroke-width:0.74721;stroke-linecap:butt;stroke-linejoin:miter;stroke-miterlimit:10;stroke-dasharray:none;stroke-opacity:1"
         transform="matrix(1.0994,0,0,-1.0994,47.650365,115.60346)" />
      <path
         id="path43"
         d="M 5.28725,0 1.20639,1.5426 2.55852,0 1.20639,-1.5426 Z"
         style="fill:#000000;fill-opacity:1;fill-rule:nonzero;stroke:#000000;stroke-width:0.74721;stroke-linecap:butt;stroke-linejoin:miter;stroke-miterlimit:10;stroke-dasharray:none;stroke-opacity:1"
         transform="matrix(0.84216239,0.70667233,0.70667233,-0.84216239,338.03439,148.08182)" />
      <path
         id="path44"
         d="m 293.3014,-19.36014 c 14.94416,10.71495 84.18789,18.68018 71.98598,-3.48199 -12.20936,-22.16965 -1.24783,-27.90073 15.69136,-56.5412 16.93174,-28.64047 -80.20526,-17.18577 -95.14941,5.23045 -14.94413,22.41623 -7.47208,44.08525 7.47207,54.79274 z"
         style="fill:#d9ecec;fill-opacity:1;fill-rule:nonzero;stroke:#008080;stroke-width:0.74721;stroke-linecap:butt;stroke-linejoin:miter;stroke-miterlimit:10;stroke-dasharray:none;stroke-opacity:1;paint-order:stroke fill markers"
         transform="matrix(1.0994,0,0,-1.0994,47.650365,115.60346)" />
      <g
         id="g44"
         aria-label="M&#10;D−2"
         transform="matrix(1.0994,0,0,1.0994,402.11891,138.82938)">
        <path
           id="path45"
           d="m 4.2052705,-6.0982189 c 0.284246,1.4212298 0.7674641,3.7520466 1.3928052,5.0169411 0.2416091,0.46900577 0.3553074,0.71061483 0.4690058,0.71061483 0.042637,0 0.071062,0 0.2558214,-0.19897216 C 7.1614284,-1.3655238 7.7299204,-2.0050772 8.4973844,-2.8720273 L 10.88505,-5.6576377 c -0.156335,0.9237994 -0.554279,3.3825269 -0.554279,4.66163364 0,0.29845825 0.01421,0.5827042 0.04264,0.88116245 0.01421,0.11369838 0.05685,0.42636893 0.511642,0.42636893 0.469006,0 1.29332,-0.48321812 1.29332,-0.69640259 0,-0.0568492 -0.07106,-0.0710615 -0.09949,-0.0710615 -0.142123,0 -0.355307,0.0994861 -0.483218,0.17054757 -0.255821,-0.0284246 -0.284246,-0.21318447 -0.298458,-0.45479353 -0.02843,-0.35530737 -0.02843,-0.68219027 -0.02843,-0.72482717 0,-1.2080453 0.469006,-4.5195106 0.795889,-5.8696789 0,-0.071061 0.01421,-0.099486 0.01421,-0.1847599 0,-0.042637 -0.01421,-0.1705475 -0.08527,-0.1705475 -0.04264,0 -0.05685,0.014212 -0.255822,0.2558213 -1.037497,1.2506822 -4.2210521,5.059578 -5.3011867,5.9833773 C 6.1665676,-2.0335018 5.9675954,-2.4456584 5.5838634,-3.9805866 5.2711929,-5.2028442 5.086433,-6.1124312 4.9016731,-7.1783535 c -0.028425,-0.142123 -0.085274,-0.4405813 -0.085274,-0.4690058 -0.042637,-0.042637 -0.085274,-0.042637 -0.1279106,-0.042637 -0.1989722,0 -0.6537657,0.2273967 -0.6821903,0.4690058 -0.1279107,0.909587 -0.3553075,2.3450291 -1.1085592,4.4342368 -0.8811625,2.33081685 -1.1227716,2.33081685 -1.3217437,2.33081685 -0.142123,0 -0.5542796,-0.0852738 -0.79588868,-0.31267055 -0.0568492,-0.0568492 -0.0710615,-0.0568492 -0.0994861,-0.0568492 -0.14212297,0 -0.38373203,0.49743042 -0.38373203,0.79588867 0,0.09948608 0,0.24160905 0.34109514,0.42636892 0.28424595,0.14212298 0.54006727,0.14212298 0.59691647,0.14212298 0.667978,0 1.3217437,-1.54914047 1.5349282,-2.11763237 0.5116427,-1.2222576 1.1227715,-2.9561579 1.4354422,-4.5195105 z m 0,0"
           style="fill:#008080;fill-opacity:1;fill-rule:nonzero;stroke:none" />
        <path
           id="path46"
           d="m 19.650485,-1.7066189 c 0,-1.1654084 -0.710615,-2.003934 -1.819174,-2.003934 H 15.23046 c -0.12791,0 -0.227396,0 -0.227396,0.142123 0,0.1136983 0.09949,0.1136983 0.227396,0.1136983 0.213185,0 0.440582,0 0.440582,0.1279107 0,0.042637 0,0.056849 -0.02843,0.1705476 L 14.57669,1.1216283 c -0.07106,0.2700336 -0.127911,0.3410951 -0.611129,0.3410951 -0.170548,0 -0.255821,0 -0.255821,0.1563353 0,0.1136984 0.08527,0.1136984 0.213184,0.1136984 h 2.544001 c 1.577565,0 3.183555,-1.64862654 3.183555,-3.439376 z m -0.653766,-0.2700337 c 0,0.4547935 -0.213184,1.63441423 -0.710615,2.3734537 -0.440581,0.6395534 -1.151196,1.0659223 -1.947084,1.0659223 h -0.966437 c -0.07106,0 -0.156335,0 -0.227396,-0.014212 0.01421,-0.085274 0.01421,-0.099486 0.02842,-0.2131844 l 1.108559,-4.4058123 c 0.07106,-0.284246 0.127911,-0.284246 0.36952,-0.284246 h 0.9238 c 0.767464,0 1.421229,0.4547936 1.421229,1.478079 z m 0,0"
           style="fill:#008080;fill-opacity:1;fill-rule:nonzero;stroke:none" />
        <path
           id="path47"
           d="m 25.441996,-0.07220472 c 0.127911,0 0.298459,0 0.298459,-0.18475987 0,-0.18475987 -0.170548,-0.18475987 -0.298459,-0.18475987 h -4.562147 c -0.127911,0 -0.312671,0 -0.312671,0.18475987 0,0.18475987 0.18476,0.18475987 0.312671,0.18475987 z m 0,0"
           style="fill:#008080;fill-opacity:1;fill-rule:nonzero;stroke:none" />
        <path
           id="path48"
           d="M 30.267071,0.31152732 H 30.01125 c -0.01421,0.15633527 -0.08527,0.5542796 -0.18476,0.71061488 -0.04264,0.056849 -0.653766,0.056849 -0.781676,0.056849 h -1.42123 l 1.080135,-0.96643625 c 0.12791,-0.12791068 0.469005,-0.38373203 0.596916,-0.49743042 0.483218,-0.45479352 0.966436,-0.89537473 0.966436,-1.62020193 0,-0.9522239 -0.810101,-1.5633527 -1.804962,-1.5633527 -0.952223,0 -1.577565,0.7248271 -1.577565,1.435442 0,0.3837321 0.312671,0.4405813 0.412157,0.4405813 0.170548,0 0.426369,-0.1136984 0.426369,-0.4121567 0,-0.4263689 -0.397944,-0.4263689 -0.49743,-0.4263689 0.227396,-0.5827042 0.767464,-0.7816764 1.151196,-0.7816764 0.739039,0 1.122771,0.6395534 1.122771,1.3075314 0,0.8243133 -0.582704,1.43544207 -1.520716,2.4018783 l -1.009073,1.0374977 c -0.08527,0.085274 -0.08527,0.099486 -0.08527,0.2984583 h 3.140918 z m 0,0"
           style="fill:#008080;fill-opacity:1;fill-rule:nonzero;stroke:none" />
      </g>
      <path
         id="path49"
         d="m 279.60509,-38.28691 c 39.35542,6.97145 67.24869,-56.78778 102.12086,-44.08525"
         style="fill:none;stroke:#bf0040;stroke-width:0.74721;stroke-linecap:butt;stroke-linejoin:miter;stroke-miterlimit:10;stroke-dasharray:none;stroke-opacity:1"
         transform="matrix(1.0994,0,0,-1.0994,47.650365,115.60346)" />
      <g
         id="g49"
         aria-label="M&#10;D−3"
         transform="matrix(1.0994,0,0,1.0994,418.54835,216.87029)">
        <path
           id="path50"
           d="m 4.2055015,-6.0963454 c 0.2842459,1.4212298 0.7674641,3.7520466 1.3928052,5.0169411 0.241609,0.46900579 0.3553074,0.71061485 0.4690058,0.71061485 0.042637,0 0.071061,0 0.2558213,-0.19897216 C 7.1616594,-1.3636503 7.7301513,-2.0032037 8.4976154,-2.8701538 l 2.3876656,-2.7856104 c -0.156335,0.9237994 -0.554279,3.3825269 -0.554279,4.66163366 0,0.29845825 0.01421,0.5827042 0.04264,0.88116245 0.01421,0.11369838228 0.05685,0.42636893 0.511642,0.42636893 0.469006,0 1.293319,-0.48321812 1.293319,-0.69640258 0,-0.0568492 -0.07106,-0.0710615 -0.09949,-0.0710615 -0.142123,0 -0.355307,0.0994861 -0.483218,0.17054757 -0.255821,-0.0284246 -0.284246,-0.21318446 -0.298458,-0.45479352 -0.02843,-0.35530741 -0.02843,-0.68219031 -0.02843,-0.72482721 0,-1.2080453 0.469006,-4.5195106 0.795889,-5.8696789 0,-0.071061 0.01421,-0.099486 0.01421,-0.1847598 0,-0.042637 -0.01421,-0.1705476 -0.08527,-0.1705476 -0.04264,0 -0.05685,0.014212 -0.255822,0.2558213 -1.037498,1.2506822 -4.2210522,5.059578 -5.3011868,5.9833773 C 6.1667986,-2.0316283 5.9678264,-2.4437849 5.5840944,-3.978713 5.2714238,-5.2009706 5.0866639,-6.1105577 4.9019041,-7.17648 c -0.028425,-0.142123 -0.085274,-0.4405812 -0.085274,-0.4690058 -0.042637,-0.042637 -0.085274,-0.042637 -0.1279107,-0.042637 -0.1989722,0 -0.6537657,0.2273967 -0.6821903,0.4690058 -0.1279107,0.9095871 -0.3553074,2.3450291 -1.1085592,4.4342369 -0.8811624,2.33081677 -1.1227715,2.33081677 -1.3217437,2.33081677 -0.1421229,0 -0.5542796,-0.0852738 -0.79588864,-0.31267055 -0.0568492,-0.0568492 -0.0710615,-0.0568492 -0.0994861,-0.0568492 -0.14212298,0 -0.38373204,0.49743042 -0.38373204,0.79588867 0,0.09948608 0,0.24160906 0.34109514,0.42636893 C 0.92246074,0.5407976 1.1782821,0.5407976 1.2351313,0.5407976 c 0.667978,0 1.3217437,-1.5491404 1.5349281,-2.1176323 0.5116427,-1.2222576 1.1227715,-2.9561579 1.4354421,-4.5195107 z m 0,0"
           style="fill:#bf0040;fill-opacity:1;fill-rule:nonzero;stroke:none" />
        <path
           id="path51"
           d="m 19.650716,-1.7047454 c 0,-1.1654084 -0.710615,-2.003934 -1.819174,-2.003934 h -2.600851 c -0.12791,0 -0.227396,0 -0.227396,0.142123 0,0.1136984 0.09949,0.1136984 0.227396,0.1136984 0.213185,0 0.440582,0 0.440582,0.1279106 0,0.042637 0,0.056849 -0.02842,0.1705476 l -1.065922,4.2779016 c -0.07106,0.2700337 -0.127911,0.3410951 -0.611129,0.3410951 -0.170548,0 -0.255821,0 -0.255821,0.1563353 0,0.1136984 0.08527,0.1136984 0.213184,0.1136984 h 2.544001 c 1.577565,0 3.183555,-1.64862652 3.183555,-3.439376 z M 18.99695,-1.9747791 c 0,0.4547935 -0.213184,1.63441425 -0.710615,2.37345373 C 17.845754,1.038228 17.135139,1.4645969 16.339251,1.4645969 h -0.966437 c -0.07106,0 -0.156335,0 -0.227396,-0.014212 0.01421,-0.085274 0.01421,-0.099486 0.02842,-0.2131844 l 1.108559,-4.4058123 c 0.07106,-0.2842459 0.127911,-0.2842459 0.36952,-0.2842459 h 0.923799 c 0.767465,0 1.42123,0.4547935 1.42123,1.4780789 z m 0,0"
           style="fill:#bf0040;fill-opacity:1;fill-rule:nonzero;stroke:none" />
        <path
           id="path52"
           d="m 25.442227,-0.0703312 c 0.127911,0 0.298458,0 0.298458,-0.18475986 0,-0.18475987 -0.170547,-0.18475987 -0.298458,-0.18475987 H 20.88008 c -0.127911,0 -0.312671,0 -0.312671,0.18475987 0,0.18475986 0.18476,0.18475986 0.312671,0.18475986 z m 0,0"
           style="fill:#bf0040;fill-opacity:1;fill-rule:nonzero;stroke:none" />
        <path
           id="path53"
           d="m 30.338364,0.37025003 c 0,-0.65376569 -0.525855,-1.26489449 -1.350169,-1.43544203 0.639554,-0.2273968 1.10856,-0.7674641 1.10856,-1.4070175 0,-0.6395534 -0.724828,-1.0943469 -1.549141,-1.0943469 -0.852738,0 -1.492291,0.4547935 -1.492291,1.0659223 0,0.2984583 0.198972,0.4263689 0.397944,0.4263689 0.255822,0 0.412157,-0.1847598 0.412157,-0.4121566 0,-0.2984582 -0.255821,-0.3979443 -0.440581,-0.4121566 0.341095,-0.4405812 0.952224,-0.4547935 1.094347,-0.4547935 0.213184,0 0.824313,0.056849 0.824313,0.8811624 0,0.5542796 -0.241609,0.8953748 -0.355308,1.0232854 -0.227396,0.2416091 -0.412156,0.2558214 -0.909587,0.284246 -0.142123,0.014212 -0.213184,0.014212 -0.213184,0.1279107 0,0.11369835 0.07106,0.11369835 0.213184,0.11369835 h 0.397945 c 0.625341,0 1.023285,0.45479352 1.023285,1.29331908 0,0.99486087 -0.568492,1.29331907 -0.980648,1.29331907 -0.440582,0 -1.037498,-0.1563353 -1.321744,-0.5827042 0.284246,0 0.483218,-0.18475986 0.483218,-0.44058121 0,-0.25582136 -0.18476,-0.44058123 -0.426369,-0.44058123 -0.227397,0 -0.440581,0.12791068 -0.440581,0.45479352 0,0.75325182 0.810101,1.25068222 1.719688,1.25068222 1.05171,0 1.804962,-0.7390395 1.804962,-1.53492817 z m 0,0"
           style="fill:#bf0040;fill-opacity:1;fill-rule:nonzero;stroke:none" />
      </g>
      <path
         id="path54"
         d="m 373.60382,-33.62434 c 13.39282,11.23811 31.43962,11.23811 41.78404,2.55795"
         style="fill:none;stroke:#000000;stroke-width:0.74721;stroke-linecap:butt;stroke-linejoin:miter;stroke-miterlimit:10;stroke-dasharray:none;stroke-opacity:1"
         transform="matrix(1.0994,0,0,-1.0994,47.650365,115.60346)" />
      <path
         id="path55"
         d="M 5.28725,0 1.20639,1.5426 2.55852,0 1.20639,-1.5426 Z"
         style="fill:#000000;fill-opacity:1;fill-rule:nonzero;stroke:#000000;stroke-width:0.74721;stroke-linecap:butt;stroke-linejoin:miter;stroke-miterlimit:10;stroke-dasharray:none;stroke-opacity:1"
         transform="matrix(0.84216239,0.70667233,0.70667233,-0.84216239,502.33041,148.08182)" />
      <path
         id="path56"
         d="m 2.0897776,-0.58406764 c 0,-0.31267055 -0.2558214,-0.56849186 -0.5684919,-0.56849186 -0.3268829,0 -0.58270422,0.25582131 -0.58270422,0.56849186 0,0.32688284 0.25582132,0.5827042 0.58270422,0.5827042 0.3126705,0 0.5684919,-0.25582136 0.5684919,-0.5827042 z m 4.8321812,0 c 0,-0.31267055 -0.2558214,-0.56849186 -0.5684919,-0.56849186 -0.3268829,0 -0.5827042,0.25582131 -0.5827042,0.56849186 0,0.32688284 0.2558213,0.5827042 0.5827042,0.5827042 0.3126705,0 0.5684919,-0.25582136 0.5684919,-0.5827042 z m 4.8428402,0 c 0,-0.31267055 -0.255821,-0.56849186 -0.568492,-0.56849186 -0.326883,0 -0.582704,0.25582131 -0.582704,0.56849186 0,0.32688284 0.255821,0.5827042 0.582704,0.5827042 0.312671,0 0.568492,-0.25582136 0.568492,-0.5827042 z m 0,0"
         style="fill:#000000;fill-opacity:1;fill-rule:nonzero;stroke:none"
         aria-label="..."
         transform="matrix(1.0994,0,0,1.0994,499.68297,158.24369)" />
      <path
         id="path57"
         d="M 381.0759,-52.30453 H 362.6392"
         style="fill:none;stroke:#0000ff;stroke-width:0.74721;stroke-linecap:butt;stroke-linejoin:miter;stroke-miterlimit:10;stroke-dasharray:none;stroke-opacity:1"
         transform="matrix(1.0994,0,0,-1.0994,47.650365,115.60346)" />
      <path
         id="path58"
         d="M 5.28725,0 1.20639,1.5426 2.55852,0 1.20639,-1.5426 Z"
         style="fill:#0000ff;fill-opacity:1;fill-rule:nonzero;stroke:#0000ff;stroke-width:0.74721;stroke-linecap:butt;stroke-linejoin:miter;stroke-miterlimit:10;stroke-dasharray:none;stroke-opacity:1"
         transform="matrix(-1.0994,0,0,1.0994,448.94338,173.10706)" />
      <path
         id="path59"
         d="M 381.0759,-52.30453 368.61761,-67.87741"
         style="fill:none;stroke:#0000ff;stroke-width:0.74721;stroke-linecap:butt;stroke-linejoin:miter;stroke-miterlimit:10;stroke-dasharray:none;stroke-opacity:1"
         transform="matrix(1.0994,0,0,-1.0994,47.650365,115.60346)" />
      <path
         id="path60"
         d="M 5.28725,0 1.20639,1.5426 2.55852,0 1.20639,-1.5426 Z"
         style="fill:#0000ff;fill-opacity:1;fill-rule:nonzero;stroke:#0000ff;stroke-width:0.74721;stroke-linecap:butt;stroke-linejoin:miter;stroke-miterlimit:10;stroke-dasharray:none;stroke-opacity:1"
         transform="matrix(-0.6867512,0.85843351,0.85843351,0.6867512,454.53736,188.1919)" />
      <path
         id="path61"
         d="m 358.65967,-52.30453 -14.94415,-18.6802 h 22.41622"
         style="fill:none;stroke:#0000ff;stroke-width:0.74721;stroke-linecap:butt;stroke-linejoin:miter;stroke-miterlimit:10;stroke-dasharray:0.74721, 0.99628;stroke-dashoffset:0;stroke-opacity:1"
         transform="matrix(1.0994,0,0,-1.0994,47.650365,115.60346)" />
      <path
         id="path62"
         d="m 381.0759,-52.30453 h -22.41623 l -14.94415,-18.6802 h 22.41622 z"
         style="fill:#0000ff;fill-opacity:0.1;fill-rule:nonzero;stroke:none"
         transform="matrix(1.0994,0,0,-1.0994,47.650365,115.60346)" />
      <g
         id="g62"
         aria-label="∑&#10;2&#10;k=1&#10;f&#10;k&#10;(z)"
         transform="matrix(1.0994,0,0,1.0994,467.47275,184.35554)">
        <path
           id="path63"
           d="m 4.5904904,5.826981 -3.86574492,4.789544 c -0.0852738,0.113699 -0.0994861,0.127911 -0.0994861,0.18476 0,0.113699 0.0994861,0.113699 0.29845825,0.113699 H 9.9627389 L 10.900751,8.2004347 H 10.630717 C 10.360683,9.0105356 9.6216438,9.6785136 8.6978444,9.9911842 8.5272969,10.048033 7.7740451,10.318067 6.1680555,10.318067 H 1.5348464 L 5.3153176,5.6280088 c 0.071061,-0.099486 0.099486,-0.1279107 0.099486,-0.1705476 0,-0.042637 -0.014212,-0.056849 -0.071061,-0.1563352 L 1.7906678,0.44052018 h 4.3205385 c 1.2506822,0 3.7520466,0.0710615 4.5195107,2.11763232 h 0.270034 L 9.9627389,-6.1048451e-5 H 0.92371765 C 0.6252594,-6.1048451e-5 0.6110471,0.01415125 0.6110471,0.35524639 Z m 0,0"
           style="fill:#0000ff;fill-opacity:1;fill-rule:nonzero;stroke:none" />
        <path
           id="path64"
           d="m 15.324328,1.7338393 h -0.255821 c -0.01421,0.1563352 -0.08527,0.5542796 -0.18476,0.7106148 -0.04264,0.056849 -0.653766,0.056849 -0.781676,0.056849 h -1.42123 l 1.080134,-0.9664362 c 0.127911,-0.1279107 0.469006,-0.383732 0.596917,-0.4974304 0.483218,-0.45479355 0.966436,-0.89537477 0.966436,-1.62020195 0,-0.95222395 -0.810101,-1.56335275 -1.804962,-1.56335275 -0.952224,0 -1.577565,0.7248272 -1.577565,1.43544207 0,0.38373204 0.312671,0.44058123 0.412157,0.44058123 0.170548,0 0.426369,-0.11369838 0.426369,-0.41215663 0,-0.42636897 -0.397944,-0.42636897 -0.49743,-0.42636897 0.227396,-0.5827042 0.767464,-0.7816763 1.151196,-0.7816763 0.739039,0 1.122771,0.6395534 1.122771,1.30753135 0,0.82431326 -0.582704,1.43544206 -1.520716,2.40187825 l -1.009073,1.0374978 c -0.08527,0.085274 -0.08527,0.099486 -0.08527,0.2984582 h 3.140918 z m 0,0"
           style="fill:#0000ff;fill-opacity:1;fill-rule:nonzero;stroke:none" />
        <path
           id="path65"
           d="m 15.665423,10.271877 c 0,-0.113698 -0.113698,-0.113698 -0.156335,-0.113698 -0.127911,0 -0.142123,0.04264 -0.170547,0.170547 -0.113699,0.454794 -0.270034,0.938012 -0.625342,0.938012 -0.12791,0 -0.241609,-0.07106 -0.241609,-0.36952 0,-0.127911 0.02842,-0.284246 0.05685,-0.397944 0.02842,-0.127911 0.02842,-0.170548 0.02842,-0.241609 0,-0.5684921 -0.540067,-0.7674643 -1.094347,-0.8527381 0.284246,-0.1989722 0.611129,-0.5542796 0.667978,-0.5969165 0.440581,-0.5116427 0.767464,-0.6964026 1.05171,-0.6964026 0.113699,0 0.170548,0.056849 0.213185,0.1136984 -0.156336,0.028425 -0.341095,0.1563353 -0.341095,0.383732 0,0.2273968 0.170547,0.2700337 0.284246,0.2700337 0.184759,0 0.397944,-0.142123 0.397944,-0.4547935 0,-0.2558214 -0.156335,-0.525855 -0.540067,-0.525855 -0.397945,0 -0.753252,0.2558213 -1.193833,0.7248271 -0.483219,0.525855 -0.653766,0.5969165 -0.810101,0.667978 l 0.795888,-3.1835546 c 0.01421,-0.028425 0.02843,-0.085274 0.02843,-0.1136984 0,-0.1279107 -0.127911,-0.1136984 -0.213185,-0.1136984 L 12.9793,5.9513381 c -0.113698,0.014212 -0.198972,0.014212 -0.198972,0.1563353 0,0.1136983 0.08527,0.1136983 0.198972,0.1136983 0.383732,0 0.383732,0.056849 0.383732,0.1279107 0,0.042637 -0.02842,0.1279107 -0.02842,0.1705476 l -1.151202,4.618997 c -0.01421,0.02843 -0.02842,0.08527 -0.02842,0.113699 0,0.113698 0.07106,0.241609 0.241609,0.241609 0.142123,0 0.270034,-0.09949 0.326883,-0.312671 l 0.397944,-1.5775649 c 0.326883,0.042637 0.895375,0.1847598 0.895375,0.6537659 0,0.05685 0,0.08527 -0.02843,0.198972 -0.01421,0.05685 -0.02842,0.156335 -0.02842,0.241609 0,0.440581 0.284246,0.795889 0.739039,0.795889 0.355308,0 0.55428,-0.270034 0.653766,-0.426369 0.18476,-0.284246 0.31267,-0.753252 0.31267,-0.795889 z m 0,0"
           style="fill:#0000ff;fill-opacity:1;fill-rule:nonzero;stroke:none" />
        <path
           id="path66"
           d="m 21.790924,8.7511612 c 0.12791,0 0.284246,0 0.284246,-0.1847599 0,-0.1847598 -0.198973,-0.1847598 -0.312671,-0.1847598 h -5.016941 c -0.113698,0 -0.312671,0 -0.312671,0.1847598 0,0.1847599 0.156336,0.1847599 0.284246,0.1847599 z m -0.02843,1.6912638 c 0.113698,0 0.312671,0 0.312671,-0.18476 0,-0.18476 -0.156336,-0.18476 -0.284246,-0.18476 h -5.073791 c -0.12791,0 -0.284246,0 -0.284246,0.18476 0,0.18476 0.198973,0.18476 0.312671,0.18476 z m 0,0"
           style="fill:#0000ff;fill-opacity:1;fill-rule:nonzero;stroke:none" />
        <path
           id="path67"
           d="m 26.118568,11.408861 v -0.270034 h -0.284246 c -0.753251,0 -0.781676,-0.08527 -0.781676,-0.383732 V 6.3350706 c 0,-0.2273967 -0.01421,-0.2273967 -0.227397,-0.2273967 -0.326883,0.3126705 -0.753252,0.5116427 -1.506503,0.5116427 v 0.2558213 c 0.213184,0 0.639553,0 1.108559,-0.2131844 v 4.0931415 c 0,0.298458 -0.02843,0.383732 -0.781677,0.383732 h -0.284245 v 0.270034 c 0.326882,-0.02843 1.009073,-0.02843 1.378592,-0.02843 0.355308,0 1.05171,0 1.378593,0.02843 z m 0,0"
           style="fill:#0000ff;fill-opacity:1;fill-rule:nonzero;stroke:none" />
        <path
           id="path68"
           d="m 34.034818,1.2044312 c 0,-0.46900585 -0.440581,-0.71061491 -0.895375,-0.71061491 -1.065922,0 -1.335956,1.40701751 -1.421229,1.79074951 l -0.227397,1.193833 h -0.710615 c -0.18476,0 -0.298458,0 -0.298458,0.2131845 0,0.1279106 0.09949,0.1279106 0.270033,0.1279106 h 0.682191 l -0.795889,4.0647172 c -0.142123,0.6821902 -0.241609,1.1227715 -0.312671,1.3501682 -0.08527,0.3837321 -0.227396,0.9522237 -0.625341,0.9522237 -0.09949,0 -0.31267,-0.04264 -0.426369,-0.1989719 0.326883,-0.056849 0.469006,-0.3268828 0.469006,-0.5400673 0,-0.2416091 -0.198972,-0.3410952 -0.36952,-0.3410952 -0.270033,0 -0.540067,0.2131845 -0.540067,0.5969165 0,0.4832179 0.469006,0.7106149 0.86695,0.7106149 1.136984,0 1.591778,-2.2881799 1.662839,-2.6719119 L 32.13037,3.8194939 h 0.895375 c 0.18476,0 0.284246,0 0.284246,-0.1989721 0,-0.142123 -0.08527,-0.142123 -0.270034,-0.142123 h -0.852738 l 0.355308,-1.7623249 c 0.08527,-0.4121566 0.213184,-0.99486084 0.596916,-0.99486084 0.08527,0 0.312671,0.0284246 0.454794,0.19897216 -0.326883,0.0568492 -0.469006,0.32688288 -0.469006,0.54006728 0,0.2416091 0.18476,0.3410952 0.36952,0.3410952 0.270033,0 0.540067,-0.2131845 0.540067,-0.5969165 z m 0,0"
           style="fill:#0000ff;fill-opacity:1;fill-rule:nonzero;stroke:none" />
        <path
           id="path69"
           d="m 36.596585,8.7795858 c 0,-0.1136984 -0.113699,-0.1136984 -0.156336,-0.1136984 -0.12791,0 -0.142123,0.042637 -0.170547,0.1705476 -0.113699,0.4547935 -0.270034,0.9380116 -0.625341,0.9380116 -0.127911,0 -0.241609,-0.071061 -0.241609,-0.3695197 0,-0.1279107 0.02842,-0.284246 0.05685,-0.3979443 0.02842,-0.1279107 0.02842,-0.1705476 0.02842,-0.2416091 0,-0.5684919 -0.540067,-0.7674641 -1.094346,-0.8527379 0.284245,-0.1989721 0.611128,-0.5542796 0.667978,-0.5969165 0.440581,-0.5116427 0.767464,-0.6964025 1.05171,-0.6964025 0.113698,0 0.170547,0.056849 0.213184,0.1136983 -0.156335,0.028425 -0.341095,0.1563353 -0.341095,0.3837321 0,0.2273967 0.170547,0.2700336 0.284246,0.2700336 0.18476,0 0.397944,-0.1421229 0.397944,-0.4547935 0,-0.2558213 -0.156335,-0.525855 -0.540067,-0.525855 -0.397944,0 -0.753252,0.2558214 -1.193833,0.7248272 -0.483218,0.525855 -0.653766,0.5969165 -0.810101,0.667978 l 0.795889,-3.1835547 c 0.01421,-0.028425 0.02842,-0.085274 0.02842,-0.1136984 0,-0.1279107 -0.127911,-0.1136984 -0.213184,-0.1136984 l -0.824314,0.071061 c -0.113698,0.014212 -0.198972,0.014212 -0.198972,0.1563353 0,0.1136984 0.08527,0.1136984 0.198972,0.1136984 0.383732,0 0.383732,0.056849 0.383732,0.1279107 0,0.042637 -0.02842,0.1279106 -0.02842,0.1705475 L 33.114572,9.646536 c -0.01421,0.028425 -0.02843,0.085274 -0.02843,0.1136983 0,0.1136984 0.07106,0.2416087 0.241609,0.2416087 0.142123,0 0.270034,-0.099486 0.326883,-0.3126701 l 0.397944,-1.5775651 c 0.326883,0.042637 0.895375,0.1847599 0.895375,0.6537657 0,0.056849 0,0.085274 -0.02842,0.1989722 -0.01421,0.056849 -0.02842,0.1563352 -0.02842,0.241609 0,0.4405813 0.284246,0.7958883 0.739039,0.7958883 0.355308,0 0.55428,-0.2700333 0.653766,-0.4263685 0.18476,-0.284246 0.312671,-0.7532518 0.312671,-0.7958887 z m 0,0"
           style="fill:#0000ff;fill-opacity:1;fill-rule:nonzero;stroke:none" />
        <path
           id="path70"
           d="m 41.00595,10.797732 c 0,-0.02843 0,-0.05685 -0.18476,-0.241609 -1.36438,-1.3643806 -1.705476,-3.4251637 -1.705476,-5.1022148 0,-1.9044479 0.412157,-3.7946835 1.748113,-5.15906407 0.142123,-0.12791068 0.142123,-0.15633528 0.142123,-0.18475987 0,-0.08527379 -0.04264,-0.11369838 -0.09949,-0.11369838 -0.113698,0 -1.094347,0.73903947 -1.748113,2.13184462 -0.554279,1.193833 -0.68219,2.4018783 -0.68219,3.3256777 0,0.8527378 0.113698,2.1744815 0.724827,3.4109514 0.653766,1.3359564 1.591778,2.0465704 1.705476,2.0465704 0.05685,0 0.09949,-0.02842 0.09949,-0.113698 z m 0,0"
           style="fill:#0000ff;fill-opacity:1;fill-rule:nonzero;stroke:none" />
        <path
           id="path71"
           d="m 46.371092,6.6193166 c 0,-0.1136984 -0.142123,-0.1136984 -0.170547,-0.1136984 -0.127911,0 -0.142123,0.042637 -0.18476,0.1847599 -0.198972,0.5400673 -0.724827,0.909587 -1.193833,0.909587 -0.213185,0 -0.383732,-0.071062 -0.611129,-0.1705476 C 43.88394,7.2872946 43.75603,7.2446577 43.542845,7.2446577 c -0.05685,0 -0.142123,0 -0.198972,0.014212 0.07106,-0.085274 0.298458,-0.3695198 0.611129,-0.667978 l 1.577565,-1.5633528 c 0.639553,-0.6253411 1.165408,-1.4638666 1.165408,-1.5633527 0,-0.099486 -0.08527,-0.099486 -0.142123,-0.099486 -0.142123,0 -0.142123,0 -0.213184,0.142123 -0.355308,0.6111288 -0.497431,0.667978 -0.682191,0.667978 -0.184759,0 -0.298458,-0.1136984 -0.511642,-0.3979444 -0.127911,-0.1705475 -0.312671,-0.4121566 -0.667978,-0.4121566 -0.795889,0 -1.264895,1.0232854 -1.264895,1.2364699 0,0.099486 0.07106,0.1279107 0.156336,0.1279107 0.12791,0 0.142123,-0.028425 0.198972,-0.1563353 0.08527,-0.241609 0.397944,-0.5116427 0.810101,-0.5116427 0.213184,0 0.412156,0.085274 0.653765,0.1989722 0.355308,0.1563352 0.483218,0.1563352 0.639554,0.1563352 -0.156336,0.1847599 -0.255822,0.3126706 -0.440581,0.4832182 l -1.79075,1.7765372 c -0.611129,0.5969165 -1.122771,1.4070174 -1.122771,1.5207158 0,0.099486 0.09949,0.099486 0.156335,0.099486 0.12791,0 0.12791,-0.014212 0.170547,-0.085274 0.156336,-0.2416091 0.454794,-0.7248272 0.866951,-0.7248272 0.241609,0 0.326882,0.1136984 0.525855,0.3837321 0.170547,0.2273967 0.341095,0.4263689 0.68219,0.4263689 1.05171,0 1.648626,-1.4070175 1.648626,-1.6770506 z m 0,0"
           style="fill:#0000ff;fill-opacity:1;fill-rule:nonzero;stroke:none" />
        <path
           id="path72"
           d="m 50.155117,5.4539082 c 0,-0.8527379 -0.113699,-2.1744816 -0.724828,-3.4109515 -0.653765,-1.33595594 -1.591777,-2.04657082 -1.705475,-2.04657082 -0.05685,0 -0.09949,0.04263689 -0.09949,0.11369838 0,0.0284246 0,0.0568492 0.198972,0.24160906 1.080134,1.08013458 1.691263,2.81403488 1.691263,5.10221488 0,1.8618109 -0.397944,3.7804711 -1.748112,5.1590638 -0.142123,0.127911 -0.142123,0.156335 -0.142123,0.18476 0,0.07106 0.04264,0.113698 0.09949,0.113698 0.113698,0 1.094347,-0.739039 1.748112,-2.1318442 0.55428,-1.193833 0.682191,-2.4018783 0.682191,-3.3256776 z m 0,0"
           style="fill:#0000ff;fill-opacity:1;fill-rule:nonzero;stroke:none" />
      </g>
      <g
         id="g72"
         aria-label="f&#10;3&#10;(z)"
         transform="matrix(1.0994,0,0,1.0994,435.62972,167.89092)">
        <path
           id="path73"
           d="m 4.930923,-6.9785078 c 0,-0.4690058 -0.4405812,-0.7106149 -0.8953747,-0.7106149 -1.0659223,0 -1.335956,1.4070175 -1.4212298,1.7907495 l -0.2273967,1.193833 H 1.6763069 c -0.1847599,0 -0.2984583,0 -0.2984583,0.2131845 0,0.1279107 0.099486,0.1279107 0.2700337,0.1279107 H 2.3300726 L 1.5341839,-0.29872791 C 1.3920609,0.38346237 1.2925748,0.8240436 1.2215134,1.0514404 1.1362396,1.4351724 0.99411659,2.0036643 0.59617226,2.0036643 c -0.0994861,0 -0.31267055,-0.042637 -0.42636893,-0.1989722 0.32688285,-0.056849 0.46900582,-0.3268828 0.46900582,-0.5400673 0,-0.241609 -0.19897216,-0.34109512 -0.36951973,-0.34109512 -0.27003365928,0 -0.54006731,0.21318442 -0.54006731,0.59691652 0,0.4832181 0.46900582,0.7106149 0.86695015,0.7106149 1.13698384,0 1.59177734,-2.28817995 1.66283884,-2.67191199 L 3.0264752,-4.363445 h 0.8953747 c 0.1847599,0 0.284246,0 0.284246,-0.1989722 0,-0.142123 -0.085274,-0.142123 -0.2700337,-0.142123 H 3.0833243 l 0.3553075,-1.7623249 c 0.085274,-0.4121566 0.2131844,-0.9948608 0.5969165,-0.9948608 0.085274,0 0.3126705,0.028425 0.4547935,0.1989722 -0.3268828,0.056849 -0.4690058,0.3268828 -0.4690058,0.5400673 0,0.241609 0.1847599,0.3410951 0.3695197,0.3410951 0.2700337,0 0.5400673,-0.2131845 0.5400673,-0.5969165 z m 0,0"
           style="fill:#0000ff;fill-opacity:1;fill-rule:nonzero;stroke:none" />
        <path
           id="path74"
           d="m 7.2262091,0.27331707 c 0,-0.65376569 -0.525855,-1.26489449 -1.3501683,-1.43544207 C 6.5155942,-1.3895218 6.9846,-1.9295891 6.9846,-2.5691425 c 0,-0.6395533 -0.7248271,-1.0943469 -1.5491404,-1.0943469 -0.8527379,0 -1.4922913,0.4547936 -1.4922913,1.0659223 0,0.2984583 0.1989722,0.426369 0.3979444,0.426369 0.2558213,0 0.4121566,-0.1847599 0.4121566,-0.4121567 0,-0.2984582 -0.2558213,-0.3979443 -0.4405812,-0.4121566 0.3410951,-0.4405812 0.9522239,-0.4547935 1.0943469,-0.4547935 0.2131845,0 0.8243133,0.056849 0.8243133,0.8811624 0,0.5542797 -0.2416091,0.8953748 -0.3553075,1.0232855 -0.2273967,0.241609 -0.4121566,0.2558213 -0.909587,0.2842459 -0.142123,0.014212 -0.2131845,0.014212 -0.2131845,0.1279107 0,0.1136984 0.071061,0.1136984 0.2131845,0.1136984 h 0.3979443 c 0.6253411,0 1.0232854,0.45479351 1.0232854,1.29331907 0,0.99486083 -0.5684919,1.29331913 -0.9806485,1.29331913 -0.4405812,0 -1.0374977,-0.1563353 -1.3217437,-0.58270425 0.284246,0 0.4832181,-0.18475987 0.4832181,-0.44058123 0,-0.25582136 -0.1847598,-0.44058122 -0.4263689,-0.44058122 -0.2273967,0 -0.4405812,0.12791067 -0.4405812,0.45479352 0,0.75325178 0.810101,1.25068218 1.719688,1.25068218 1.05171,0 1.8049618,-0.7390395 1.8049618,-1.53492813 z m 0,0"
           style="fill:#0000ff;fill-opacity:1;fill-rule:nonzero;stroke:none" />
        <path
           id="path75"
           d="m 11.685317,2.6147931 c 0,-0.028425 0,-0.056849 -0.184759,-0.2416091 -1.364381,-1.3643805 -1.7054761,-3.4251637 -1.7054761,-5.1022148 0,-1.9044479 0.4121571,-3.7946835 1.7481131,-5.159064 0.142122,-0.1279107 0.142122,-0.1563353 0.142122,-0.1847599 0,-0.085274 -0.04264,-0.1136984 -0.09949,-0.1136984 -0.113698,0 -1.094347,0.7390395 -1.7481122,2.1318447 -0.5542796,1.193833 -0.6821903,2.4018783 -0.6821903,3.3256776 0,0.8527379 0.1136984,2.17448153 0.7248272,3.41095142 0.6537653,1.33595598 1.5917773,2.04657088 1.7054753,2.04657088 0.05685,0 0.09949,-0.028425 0.09949,-0.1136984 z m 0,0"
           style="fill:#0000ff;fill-opacity:1;fill-rule:nonzero;stroke:none" />
        <path
           id="path76"
           d="m 17.054013,-1.5636224 c 0,-0.1136984 -0.142123,-0.1136984 -0.170548,-0.1136984 -0.12791,0 -0.142123,0.042637 -0.18476,0.1847599 -0.198972,0.5400673 -0.724827,0.90958704 -1.193833,0.90958704 -0.213184,0 -0.383732,-0.0710615 -0.611128,-0.17054758 -0.326883,-0.14212297 -0.454794,-0.18475986 -0.667978,-0.18475986 -0.05685,0 -0.142123,0 -0.198972,0.0142123 0.07106,-0.0852738 0.298458,-0.3695197 0.611128,-0.667978 l 1.577565,-1.5633527 c 0.639554,-0.6253411 1.165409,-1.4638667 1.165409,-1.5633528 0,-0.099486 -0.08527,-0.099486 -0.142123,-0.099486 -0.142123,0 -0.142123,0 -0.213185,0.142123 -0.355307,0.6111288 -0.49743,0.667978 -0.68219,0.667978 -0.18476,0 -0.298458,-0.1136984 -0.511643,-0.3979443 -0.12791,-0.1705476 -0.31267,-0.4121567 -0.667978,-0.4121567 -0.795888,0 -1.264894,1.0232855 -1.264894,1.2364699 0,0.099486 0.07106,0.1279107 0.156335,0.1279107 0.127911,0 0.142123,-0.028425 0.198972,-0.1563353 0.08527,-0.241609 0.397945,-0.5116427 0.810101,-0.5116427 0.213185,0 0.412157,0.085274 0.653766,0.1989722 0.355307,0.1563353 0.483218,0.1563353 0.639553,0.1563353 -0.156335,0.1847598 -0.255821,0.3126705 -0.440581,0.4832181 l -1.790749,1.7765372 c -0.611129,0.5969165 -1.122772,1.40701746 -1.122772,1.52071585 0,0.09948608 0.09949,0.09948608 0.156335,0.09948608 0.127911,0 0.127911,-0.0142123 0.170548,-0.08527379 0.156335,-0.24160906 0.454793,-0.72482718 0.86695,-0.72482718 0.241609,0 0.326883,0.11369839 0.525855,0.38373204 0.170548,0.22739676 0.341095,0.42636893 0.68219,0.42636893 1.05171,0 1.648627,-1.40701743 1.648627,-1.67705123 z m 0,0"
           style="fill:#0000ff;fill-opacity:1;fill-rule:nonzero;stroke:none" />
        <path
           id="path77"
           d="m 20.834484,-2.7290308 c 0,-0.8527379 -0.113698,-2.1744815 -0.724827,-3.4109514 -0.653766,-1.335956 -1.591777,-2.0465709 -1.705476,-2.0465709 -0.05685,0 -0.09949,0.042637 -0.09949,0.1136984 0,0.028425 0,0.056849 0.198972,0.2416091 1.080135,1.0801346 1.691264,2.8140349 1.691264,5.1022148 0,1.86181098 -0.397945,3.7804712 -1.748113,5.159064 -0.142123,0.1279107 -0.142123,0.1563353 -0.142123,0.1847599 0,0.071061 0.04264,0.1136984 0.09949,0.1136984 0.113699,0 1.094347,-0.7390395 1.748113,-2.13184466 0.554279,-1.193833 0.68219,-2.40187834 0.68219,-3.32567764 z m 0,0"
           style="fill:#0000ff;fill-opacity:1;fill-rule:nonzero;stroke:none" />
      </g>
      <path
         id="path78"
         d="m 345.70807,-67.24869 c 0,-1.10046 -0.89209,-1.99255 -1.99255,-1.99255 -1.10048,0 -1.99256,0.89209 -1.99256,1.99255 0,1.10048 0.89208,1.99256 1.99256,1.99256 1.10046,0 1.99255,-0.89208 1.99255,-1.99256 z"
         style="fill:#ff0000;fill-opacity:1;fill-rule:nonzero;stroke:none"
         transform="matrix(1.0994,0,0,-1.0994,47.650365,115.60346)" />
      <g
         id="g78"
         aria-label="µ&#10;z"
         transform="matrix(1.0994,0,0,1.0994,405.52925,190.95304)">
        <path
           id="path79"
           d="m 2.5138411,-3.8372387 c 0.056849,-0.2273968 0.1705476,-0.6395534 0.1705476,-0.6964026 0,-0.1847599 -0.1279107,-0.284246 -0.3126706,-0.284246 -0.042637,0 -0.3410951,0 -0.4405812,0.3837321 L 0.35357184,1.8903172 c -0.0284246,0.1279107 -0.0284246,0.1563353 -0.0284246,0.1705476 0,0.1705475 0.11369838,0.2984582 0.31267054,0.2984582 0.22739677,0 0.35530744,-0.1989721 0.36951972,-0.2273967 0.042637,-0.099486 0.1847599,-0.667978 0.6111288,-2.34502914 C 1.9595615,0.07114311 2.4569919,0.11378 2.6701764,0.11378 c 0.767464,0 1.193833,-0.48321812 1.4496543,-0.79588867 0.099486,0.49743042 0.5116427,0.79588867 0.9806485,0.79588867 0.3837321,0 0.6395534,-0.24160906 0.810101,-0.5969165 0.1847599,-0.38373203 0.3268829,-1.05171 0.3268829,-1.0801346 0,-0.1136984 -0.099486,-0.1136984 -0.1279107,-0.1136984 -0.1136984,0 -0.1136984,0.056849 -0.1563353,0.1989722 -0.1847599,0.71061485 -0.383732,1.36438054 -0.8243133,1.36438054 -0.2984582,0 -0.3268828,-0.28424595 -0.3268828,-0.51164271 0,-0.24160906 0.1279107,-0.75325173 0.2131845,-1.13698383 L 5.327876,-2.941864 c 0.028425,-0.1563353 0.142123,-0.5684919 0.1847599,-0.7390395 0.056849,-0.241609 0.1563353,-0.667978 0.1563353,-0.7248271 0,-0.1989722 -0.142123,-0.2984583 -0.3126706,-0.2984583 -0.056849,0 -0.3410951,0.014212 -0.4263689,0.383732 L 4.418289,-2.2880983 c -0.1279107,0.5542796 -0.2558214,1.0090731 -0.284246,1.1227715 -0.014212,0.056849 -0.5400673,1.05171004 -1.4212298,1.05171004 -0.5400673,0 -0.8101009,-0.36951974 -0.8101009,-0.95222394 0,-0.3268828 0.085274,-0.6253411 0.1563353,-0.9380116 z m 0,0"
           style="fill:#ff0000;fill-opacity:1;fill-rule:nonzero;stroke:none" />
        <path
           id="path80"
           d="m 10.280862,0.48685281 c 0,-0.11369838 -0.09949,-0.11369838 -0.156336,-0.11369838 -0.113698,0 -0.1279102,0.0426369 -0.1563348,0.14212298 -0.142123,0.38373203 -0.5400673,0.65376569 -0.9095871,0.65376569 -0.1705475,0 -0.3126705,-0.056849 -0.5400673,-0.142123 C 8.2485032,0.92743404 8.1632294,0.92743404 7.9216203,0.92743404 l 0.6111288,-0.6111288 0.8953748,-0.79588866 c 0.4547935,-0.46900583 0.4690058,-0.48321812 0.5969161,-0.63955338 0.156336,-0.1847599 0.454794,-0.5684919 0.454794,-0.667978 0,-0.085274 -0.08527,-0.085274 -0.156335,-0.085274 -0.08527,0 -0.113699,0 -0.156336,0.071062 -0.2416087,0.4121566 -0.3410948,0.4832181 -0.4974301,0.4832181 -0.1705475,0 -0.2842459,-0.1279107 -0.3979443,-0.2700336 -0.2131845,-0.2131845 -0.3553074,-0.284246 -0.5542796,-0.284246 -0.6111288,0 -0.9948608,0.7106149 -0.9948608,0.92379935 0,0.0994861 0.099486,0.0994861 0.1421229,0.0994861 0.099486,0 0.1279107,-0.0142123 0.1563353,-0.0852738 C 8.1774417,-1.332321 8.6038106,-1.332321 8.6464475,-1.332321 c 0.1705476,0 0.3553074,0.071062 0.4690058,0.1136984 0.2984583,0.1136984 0.3553075,0.1279107 0.5116427,0.1279107 C 9.4139116,-0.82067857 8.959118,-0.42273423 8.5895983,-0.09585139 8.333777,0.14575767 8.0637433,0.37315443 7.8221342,0.62897579 7.3957653,1.0837693 7.0830948,1.5385628 7.0830948,1.6238366 c 0,0.099486 0.099486,0.099486 0.1563352,0.099486 0.099486,0 0.099486,-0.014212 0.1705476,-0.1136984 0.099486,-0.1563352 0.3268829,-0.4547935 0.6111288,-0.4547935 0.142123,0 0.2273968,0.042637 0.4263689,0.2700337 0.1563353,0.1847598 0.2984583,0.2984582 0.525855,0.2984582 0.8243133,0 1.3075317,-1.00907312 1.3075317,-1.23646979 z m 0,0"
           style="fill:#ff0000;fill-opacity:1;fill-rule:nonzero;stroke:none" />
      </g>
      <path
         id="path81"
         d="M 381.0759,-52.30453 347.41026,-65.7708"
         style="fill:none;stroke:#ff0000;stroke-width:0.74721;stroke-linecap:butt;stroke-linejoin:miter;stroke-miterlimit:10;stroke-dasharray:none;stroke-opacity:1"
         transform="matrix(1.0994,0,0,-1.0994,47.650365,115.60346)" />
      <path
         id="path82"
         d="M 5.28725,0 1.20639,1.5426 2.55852,0 1.20639,-1.5426 Z"
         style="fill:#ff0000;fill-opacity:1;fill-rule:nonzero;stroke:#ff0000;stroke-width:0.74721;stroke-linecap:butt;stroke-linejoin:miter;stroke-miterlimit:10;stroke-dasharray:none;stroke-opacity:1"
         transform="matrix(-1.0207269,0.40828418,0.40828418,1.0207269,432.01406,186.94356)" />
      <path
         id="path83"
         d="m 383.06845,-52.30453 c 0,-1.10047 -0.89209,-1.99256 -1.99255,-1.99256 -1.10048,0 -1.99256,0.89209 -1.99256,1.99256 0,1.10047 0.89208,1.99255 1.99256,1.99255 1.10046,0 1.99255,-0.89208 1.99255,-1.99255 z"
         style="fill:#000000;fill-opacity:1;fill-rule:nonzero;stroke:none"
         transform="matrix(1.0994,0,0,-1.0994,47.650365,115.60346)" />
      <path
         id="path84"
         d="m 4.7342519,-1.5646859 c 0,-0.1136984 -0.142123,-0.1136984 -0.1705476,-0.1136984 -0.1279107,0 -0.142123,0.042637 -0.1847598,0.1847599 -0.1989722,0.54006731 -0.7248272,0.90958705 -1.193833,0.90958705 -0.2131845,0 -0.3837321,-0.0710615 -0.6111288,-0.17054758 -0.3268829,-0.14212297 -0.4547936,-0.18475986 -0.667978,-0.18475986 -0.056849,0 -0.142123,0 -0.1989722,0.0142123 0.071062,-0.0852738 0.2984583,-0.36951971 0.6111288,-0.66797801 l 1.577565,-1.5633527 c 0.6395534,-0.6253411 1.1654084,-1.4638667 1.1654084,-1.5633528 0,-0.099486 -0.085274,-0.099486 -0.1421229,-0.099486 -0.142123,0 -0.142123,0 -0.2131845,0.1421229 -0.3553074,0.6111288 -0.4974304,0.667978 -0.6821903,0.667978 -0.1847599,0 -0.2984582,-0.1136984 -0.5116427,-0.3979443 C 3.3840836,-4.577693 3.1993238,-4.819302 2.8440163,-4.819302 c -0.7958887,0 -1.2648945,1.0232854 -1.2648945,1.2364698 0,0.099486 0.071061,0.1279107 0.1563353,0.1279107 0.1279107,0 0.142123,-0.028425 0.1989722,-0.1563352 0.085274,-0.2416091 0.3979443,-0.5116428 0.8101009,-0.5116428 0.2131845,0 0.4121567,0.085274 0.6537657,0.1989722 C 3.7536034,-3.767592 3.881514,-3.767592 4.0378493,-3.767592 3.881514,-3.5828322 3.782028,-3.4549215 3.5972681,-3.2843739 l -1.7907495,1.7765372 c -0.6111288,0.5969165 -1.12277153,1.40701747 -1.12277153,1.52071585 0,0.09948608 0.0994861,0.09948608 0.15633528,0.09948608 0.12791068,0 0.12791068,-0.0142123 0.17054755,-0.08527379 0.1563353,-0.24160906 0.4547935,-0.72482717 0.8669502,-0.72482717 0.241609,0 0.3268828,0.11369838 0.525855,0.38373203 0.1705476,0.22739676 0.3410951,0.42636893 0.6821903,0.42636893 1.05171,0 1.6486265,-1.40701743 1.6486265,-1.67705113 z m 0,0"
         style="fill:#000000;fill-opacity:1;fill-rule:nonzero;stroke:none"
         aria-label="z"
         transform="matrix(1.0994,0,0,1.0994,471.01391,175.68897)" />
    </g>
    <rect
       style="fill:none;stroke:none"
       id="rect90"
       width="2192"
       height="1140"
       x="-793.64001"
       y="-399.91998"
       rx="16" />
  </g>
</svg>
